<?xml version="1.0" standalone="no"?>
<!DOCTYPE svg PUBLIC "-//W3C//DTD SVG 1.1//EN" "http://www.w3.org/Graphics/SVG/1.1/DTD/svg11.dtd" >
<svg>
<metadata>
Created by FontForge 20120731 at Thu Sep 15 18:24:40 2016
 By ,,,
Copyright (c) Cornel Windlin, 2003. All rights reserved.
</metadata>
<defs>
<font id="AlphaHeadlinePro-Regular" horiz-adv-x="671" >
  <font-face 
    font-family="AlphaHeadlinePro-Regular"
    font-weight="400"
    font-stretch="normal"
    units-per-em="1000"
    panose-1="2 0 5 0 2 0 0 2 0 4"
    ascent="801"
    descent="-199"
    x-height="513"
    cap-height="712"
    bbox="-2 -232 918 962"
    underline-thickness="62"
    underline-position="-150"
    unicode-range="U+000D-FB02"
  />
<missing-glyph horiz-adv-x="598" 
d="M89 0v712h420v-712h-420zM165 76h268v560h-268v-560z" />
    <glyph glyph-name=".notdef" horiz-adv-x="598" 
d="M89 0v712h420v-712h-420zM165 76h268v560h-268v-560z" />
    <glyph glyph-name=".notdef" horiz-adv-x="598" 
d="M89 0v712h420v-712h-420zM165 76h268v560h-268v-560z" />
    <glyph glyph-name=".null" horiz-adv-x="0" 
 />
    <glyph glyph-name="nonmarkingreturn" horiz-adv-x="333" 
 />
    <glyph glyph-name="CR" unicode="&#xd;" horiz-adv-x="305" 
 />
    <glyph glyph-name="space" unicode=" " horiz-adv-x="305" 
 />
    <glyph glyph-name="exclam" unicode="!" horiz-adv-x="342" 
d="M155 206q-20 0 -23 23l-19 143v317q0 9 7 16t16 7h71q9 0 15.5 -7t6.5 -16v-317l-19 -143q-3 -23 -25 -23h-30zM137 0q-10 0 -18.5 8t-8.5 18v68q0 10 8.5 18t18.5 8h68q10 0 18.5 -8t8.5 -18v-68q0 -10 -8.5 -18t-18.5 -8h-68z" />
    <glyph glyph-name="quotedbl" unicode="&#x22;" horiz-adv-x="457" 
d="M303 429q-25 0 -27 27l-20 229v3q0 10 7.5 17t18.5 7h56q11 0 19 -7t8 -17v-3l-21 -229q-1 -12 -8 -19.5t-18 -7.5h-15zM139 429q-11 0 -18 7.5t-8 19.5l-21 229v3q0 10 8 17t19 7h56q11 0 18.5 -7t7.5 -17v-3l-20 -229q-2 -27 -27 -27h-15z" />
    <glyph glyph-name="numbersign" unicode="#" 
d="M145 159l28 135h-109l16 75h110l28 134h-110l16 74h109l29 135h74l-28 -135h114l28 135h74l-29 -135h110l-16 -74h-110l-28 -134h110l-16 -75h-110l-28 -135h-74l28 135h-114l-28 -135h-74zM263 369h114l29 134h-115z" />
    <glyph glyph-name="dollar" unicode="$" 
d="M294 -67v81h-39q-74 0 -116.5 42.5t-54.5 116.5l83 22l6 -27q14 -65 76 -65h166q31 0 53 22t22 57v44q0 23 -13 41.5t-35 23.5l-227 53q-53 13 -89 55.5t-36 104.5v33q0 70 45 115t115 45h44v80h82v-80h40q74 0 116 -42.5t55 -115.5l-83 -23l-7 28q-16 64 -74 64h-172
q-32 0 -52 -20t-20 -52v-30q0 -65 67 -80l216 -49q53 -12 85 -55t32 -96v-41q0 -72 -48 -121.5t-118 -49.5h-37v-81h-82z" />
    <glyph glyph-name="percent" unicode="%" horiz-adv-x="692" 
d="M202 -49l-75 33l357 763l75 -34zM116 470q-12 0 -20.5 9t-8.5 21v82q0 12 8.5 20.5t20.5 8.5h86q12 0 20.5 -8.5t8.5 -20.5v-82q0 -12 -8.5 -21t-20.5 -9h-86zM490 114q-12 0 -20.5 8.5t-8.5 20.5v82q0 12 8.5 21t20.5 9h86q12 0 20.5 -9t8.5 -21v-82q0 -12 -8.5 -20.5
t-20.5 -8.5h-86z" />
    <glyph glyph-name="ampersand" unicode="&#x26;" horiz-adv-x="710" 
d="M257 0q-72 0 -120 48.5t-48 121.5v52q0 92 110 149q-75 60 -75 133v46q0 71 45.5 116.5t115.5 45.5h62q72 0 120.5 -42t48.5 -104v-54q0 -47 -33.5 -82.5t-102.5 -71.5l147 -112l44 57l70 -49l-45 -61l60 -48l-58 -68l-55 43l-12 -15q-49 -61 -79 -83t-82 -22h-113z
M250 90h118q26 0 43 13t46 50l16 20l-190 142l-62 -34q-43 -24 -43 -65v-52q0 -30 21 -52t51 -22zM298 412l64 31q64 31 64 83v22q0 33 -23 53.5t-54 20.5h-62q-30 0 -51.5 -22t-21.5 -52v-26q0 -50 35 -75z" />
    <glyph glyph-name="quotesingle" unicode="'" horiz-adv-x="275" 
d="M129 429q-11 0 -18.5 7.5t-8.5 19.5l-20 229v3q0 10 7.5 17t18.5 7h56q11 0 19 -7t8 -17v-3l-21 -229q-1 -12 -8 -19.5t-18 -7.5h-15z" />
    <glyph glyph-name="parenleft" unicode="(" horiz-adv-x="358" 
d="M243 -213q-78 135 -112.5 257.5t-34.5 257.5q0 136 34.5 258.5t112.5 257.5l55 -34q-104 -239 -104 -482q0 -242 104 -481z" />
    <glyph glyph-name="parenright" unicode=")" horiz-adv-x="358" 
d="M116 -213l-55 34q104 239 104 481q0 243 -104 482l55 34q78 -135 112.5 -257.5t34.5 -258.5q0 -135 -34.5 -257.5t-112.5 -257.5z" />
    <glyph glyph-name="asterisk" unicode="*" horiz-adv-x="531" 
d="M350 355q-9 0 -14 8l-69 112l-69 -111q-5 -8 -15 -8q-7 0 -11 3l-33 25q-8 6 -8 14q0 4 4 10l86 101l-128 31q-13 3 -13 17q0 4 1 6l13 39q3 12 17 12q4 0 6 -1l121 -50l-9 132q0 7 5.5 12t12.5 5h41q7 0 12.5 -5t5.5 -12l-9 -132l120 49q6 2 7 2q11 0 16 -13l12 -39
q2 -4 2 -6q0 -14 -13 -17l-128 -31l85 -100q4 -6 4 -11q0 -8 -8 -14l-33 -24q-5 -4 -11 -4z" />
    <glyph glyph-name="plus" unicode="+" horiz-adv-x="571" 
d="M247 119v198h-200v76h200v200h76v-200h199v-76h-199v-198h-76z" />
    <glyph glyph-name="comma" unicode="," horiz-adv-x="285" 
d="M68 -151q-5 0 -13 4l-24 12q-12 7 -12 20q0 8 2 12l106 254q6 15 22 15q5 0 11 -2l58 -29q14 -7 14 -20q0 -6 -4 -13l-139 -239q-8 -14 -21 -14z" />
    <glyph glyph-name="hyphen" unicode="-" horiz-adv-x="487" 
d="M78 317v80h331v-80h-331z" />
    <glyph glyph-name="period" unicode="." horiz-adv-x="285" 
d="M100 0q-13 0 -21.5 8.5t-8.5 19.5v85q0 11 8.5 19.5t21.5 8.5h85q12 0 21 -8.5t9 -19.5v-85q0 -11 -9 -19.5t-21 -8.5h-85z" />
    <glyph glyph-name="slash" unicode="/" horiz-adv-x="548" 
d="M126 -82l-66 30l395 846l66 -30z" />
    <glyph glyph-name="zero" unicode="0" 
d="M267 0q-77 0 -129.5 52.5t-52.5 128.5v350q0 77 52.5 129t128.5 52h138q75 0 128 -52.5t53 -128.5v-350q0 -76 -52.5 -128.5t-128.5 -52.5h-137zM260 91h149q36 0 61 24.5t25 60.5v360q0 36 -25 60.5t-60 24.5h-150q-36 0 -60 -24.5t-24 -60.5v-360q0 -36 24 -60.5
t60 -24.5z" />
    <glyph glyph-name="one" unicode="1" 
d="M147 0v89h148v534h-131v89h221v-623h139v-89h-377z" />
    <glyph glyph-name="two" unicode="2" 
d="M86 0v106q0 109 72 152l276 165q62 38 62 91v22q0 36 -24 60.5t-60 24.5h-153q-33 0 -54.5 -21t-28.5 -53l-6 -27l-84 21l3 14q15 69 59.5 113t116.5 44h148q77 0 125 -48t48 -125v-43q0 -89 -110 -154l-227 -132q-41 -24 -54.5 -40.5t-13.5 -49.5v-29h405v-91h-500z" />
    <glyph glyph-name="three" unicode="3" 
d="M269 0q-79 0 -125 47t-60 123l85 23l7 -28q18 -74 85 -74h150q37 0 61 24.5t24 60.5v62q0 37 -18.5 60.5t-55.5 23.5h-134v91h134q37 0 55.5 23t18.5 61v39q0 36 -24 60.5t-60 24.5h-151q-70 0 -87 -74l-6 -28l-85 23q13 76 59 123t125 47h138q76 0 129 -52.5t53 -128.5
v-28q0 -38 -16 -75.5t-44 -60.5q60 -50 60 -135v-51q0 -76 -53 -128.5t-128 -52.5h-137z" />
    <glyph glyph-name="four" unicode="4" 
d="M419 0v168h-335v87l331 457h94v-456h78v-88h-78v-168h-90zM186 256h233v317z" />
    <glyph glyph-name="five" unicode="5" 
d="M263 0q-76 0 -121.5 44.5t-60.5 116.5l85 25l5 -22q16 -73 85 -73h158q36 0 60 24.5t24 60.5v101q0 36 -24 59.5t-60 23.5h-157q-65 0 -79 -52l-88 27l79 377h385v-91h-314l-35 -178q18 9 58 9h145q75 0 128 -53t53 -129v-89q0 -76 -53 -128.5t-128 -52.5h-145z" />
    <glyph glyph-name="six" unicode="6" 
d="M261 0q-77 0 -127.5 52t-50.5 125v354q0 76 53 128.5t129 52.5h137q78 0 123.5 -46t60.5 -121l-84 -25l-6 25q-18 76 -86 76h-152q-36 0 -60 -24.5t-24 -60.5v-127q12 22 39.5 33t56.5 11h136q74 0 125.5 -51.5t51.5 -125.5v-99q0 -73 -51 -125t-125 -52h-146zM258 91
h150q36 0 60 24.5t24 60.5v104q0 34 -24.5 58t-59.5 24h-139q-43 0 -68.5 -24t-25.5 -60v-102q0 -36 23.5 -60.5t59.5 -24.5z" />
    <glyph glyph-name="seven" unicode="7" 
d="M172 0l308 621h-395v91h500v-84l-313 -628h-100z" />
    <glyph glyph-name="eight" unicode="8" 
d="M267 0q-76 0 -129 52.5t-53 128.5v52q0 36 15.5 74t46.5 62q-31 24 -46.5 61.5t-15.5 73.5v27q0 76 53 128.5t129 52.5h137q75 0 128 -52.5t53 -128.5v-27q0 -36 -15.5 -74.5t-45.5 -60.5q29 -22 45 -61.5t16 -74.5v-52q0 -76 -53 -128.5t-128 -52.5h-137zM260 91h150
q36 0 60.5 24.5t24.5 60.5v65q0 32 -23 58t-62 26h-150q-38 0 -60.5 -26t-22.5 -58v-65q0 -36 23.5 -60.5t59.5 -24.5zM260 413h150q39 0 62 25.5t23 58.5v41q0 35 -24.5 59t-60.5 24h-150q-36 0 -60 -24.5t-24 -60.5v-39q0 -33 22.5 -58.5t61.5 -25.5z" />
    <glyph glyph-name="nine" unicode="9" 
d="M268 0q-78 0 -123.5 46t-60.5 121l84 25l7 -27q19 -74 85 -74h152q36 0 60.5 24.5t24.5 60.5v133q-12 -22 -40 -33.5t-57 -11.5h-135q-75 0 -126.5 51.5t-51.5 125.5v94q0 73 51.5 125t125.5 52h146q76 0 126.5 -52t50.5 -125v-354q0 -76 -53 -128.5t-129 -52.5h-137z
M262 355h139q43 0 69 24t26 60v99q0 35 -24 59t-59 24h-150q-37 0 -61 -24.5t-24 -60.5v-97q0 -35 24 -59.5t60 -24.5z" />
    <glyph glyph-name="colon" unicode=":" horiz-adv-x="285" 
d="M100 357q-13 0 -21.5 8.5t-8.5 19.5v85q0 11 8.5 19.5t21.5 8.5h85q12 0 21 -8.5t9 -19.5v-85q0 -11 -9 -19.5t-21 -8.5h-85zM100 0q-13 0 -21.5 8.5t-8.5 19.5v85q0 11 8.5 19.5t21.5 8.5h85q12 0 21 -8.5t9 -19.5v-85q0 -11 -9 -19.5t-21 -8.5h-85z" />
    <glyph glyph-name="semicolon" unicode=";" horiz-adv-x="285" 
d="M56 -151q-4 0 -12 4l-24 12q-13 7 -13 20q0 6 3 12l106 254q6 15 22 15q7 0 11 -2l58 -29q14 -7 14 -20q0 -5 -5 -13l-138 -239q-8 -14 -22 -14zM119 357q-13 0 -21.5 8.5t-8.5 19.5v85q0 11 8.5 19.5t21.5 8.5h85q12 0 21 -8.5t9 -19.5v-85q0 -11 -9 -19.5t-21 -8.5h-85
z" />
    <glyph glyph-name="less" unicode="&#x3c;" horiz-adv-x="571" 
d="M392 114q-9 0 -21 10l-229 212q-9 8 -9 20t9 20l229 212q12 10 21 10q8 0 19 -9l15 -14q10 -10 10 -22q0 -9 -9 -20l-163 -177l163 -178q9 -9 9 -20q0 -12 -9 -21l-16 -15q-8 -8 -19 -8z" />
    <glyph glyph-name="equal" unicode="=" horiz-adv-x="571" 
d="M86 400v76h398v-76h-398zM86 234v76h398v-76h-398z" />
    <glyph glyph-name="greater" unicode="&#x3e;" horiz-adv-x="571" 
d="M177 114q-10 0 -18 8l-15 15q-11 11 -11 21t10 20l163 178l-163 177q-10 12 -10 20q0 11 11 22l15 14q7 9 18 9q10 0 22 -10l229 -212q9 -8 9 -20t-9 -20l-229 -212q-12 -10 -22 -10z" />
    <glyph glyph-name="question" unicode="?" horiz-adv-x="599" 
d="M227 206q-12 0 -12 12v24q0 42 20.5 73.5t65.5 67.5l70 57q34 27 45.5 42t11.5 39v28q0 32 -20 52t-52 20h-136q-58 0 -77 -74l-7 -28l-84 23q12 76 55.5 123t116.5 47h131q71 0 117 -45.5t46 -116.5v-36q0 -65 -83 -131l-98 -79q-19 -15 -27 -27.5t-8 -34.5v-24
q0 -12 -11 -12h-64zM225 0q-10 0 -18 8t-8 18v68q0 10 8 18t18 8h68q11 0 19 -8t8 -18v-68q0 -10 -8 -18t-19 -8h-68z" />
    <glyph glyph-name="at" unicode="@" horiz-adv-x="831" 
d="M315 -3q-97 0 -167 70t-70 165v249q0 95 70 164.5t167 69.5h204q95 0 164.5 -69.5t69.5 -164.5v-172q0 -53 -38.5 -84t-91.5 -31h-26q-50 0 -87 34q-40 -34 -84 -34h-61q-49 0 -83 34t-34 83v89q0 49 34 83.5t83 34.5h179v-208q0 -21 15 -33t37 -12h25q23 0 39.5 12
t16.5 33v179q0 62 -44 106t-105 44h-224q-61 0 -105.5 -45t-44.5 -107v-264q0 -61 44 -105.5t106 -44.5h181q80 0 136 56l16 16l54 -49l-13 -16q-68 -83 -197 -83h-166zM363 267h65q17 0 30 12.5t13 29.5v136h-108q-17 0 -30 -12.5t-13 -29.5v-94q0 -17 13 -29.5t30 -12.5z
" />
    <glyph glyph-name="A" unicode="A" horiz-adv-x="609" 
d="M54 0v31q0 41 11 74l194 607h91l194 -607q11 -33 11 -74v-31h-89v29q0 20 -3 32l-26 99h-264l-27 -99q-3 -12 -3 -32v-29h-89zM201 250h207l-104 316z" />
    <glyph glyph-name="B" unicode="B" horiz-adv-x="684" 
d="M104 0v712h319q76 0 128.5 -52.5t52.5 -128.5v-31q0 -41 -18.5 -77.5t-47.5 -58.5q29 -19 47.5 -56t18.5 -78v-49q0 -76 -52.5 -128.5t-128.5 -52.5h-319zM195 91h234q36 0 60 24.5t24 60.5v58q0 37 -22.5 61t-61.5 24h-234v-228zM195 409h234q39 0 61.5 24t22.5 61v42
q0 36 -24 60.5t-60 24.5h-234v-212z" />
    <glyph glyph-name="C" unicode="C" horiz-adv-x="647" 
d="M268 0q-76 0 -128.5 52.5t-52.5 128.5v350q0 76 52.5 128.5t128.5 52.5h139q79 0 125 -47t59 -123l-85 -23l-7 28q-19 74 -86 74h-151q-36 0 -60 -24.5t-24 -60.5v-360q0 -36 24 -60.5t60 -24.5h149q72 0 88 75l6 27l84 -23q-12 -76 -58 -123t-125 -47h-138z" />
    <glyph glyph-name="D" unicode="D" horiz-adv-x="692" 
d="M104 0v712h319q76 0 128.5 -52.5t52.5 -128.5v-350q0 -76 -52.5 -128.5t-128.5 -52.5h-319zM195 91h234q36 0 60 24.5t24 60.5v360q0 36 -24 60.5t-60 24.5h-234v-530z" />
    <glyph glyph-name="E" unicode="E" horiz-adv-x="679" 
d="M104 0v712h500v-91h-409v-211h319v-91h-319v-228h409v-91h-500z" />
    <glyph glyph-name="F" unicode="F" horiz-adv-x="644" 
d="M104 0v712h500v-91h-409v-211h319v-91h-319v-319h-91z" />
    <glyph glyph-name="G" unicode="G" horiz-adv-x="668" 
d="M268 0q-76 0 -128.5 52.5t-52.5 128.5v350q0 72 53 126.5t128 54.5h139q79 0 125 -47t59 -123l-85 -23l-7 28q-19 74 -86 74h-151q-35 0 -59.5 -26.5t-24.5 -58.5v-360q0 -32 24.5 -58.5t59.5 -26.5h150q35 0 59.5 24.5t24.5 60.5v143h-147v88h238v-226
q0 -76 -52.5 -128.5t-128.5 -52.5h-138z" />
    <glyph glyph-name="H" unicode="H" horiz-adv-x="709" 
d="M104 0v712h91v-303h318v303h91v-712h-91v319h-318v-319h-91z" />
    <glyph glyph-name="I" unicode="I" horiz-adv-x="474" 
d="M85 0v91h106v530h-106v91h303v-91h-105v-530h105v-91h-303z" />
    <glyph glyph-name="J" unicode="J" horiz-adv-x="629" 
d="M222 0q-78 0 -124 47t-59 123l85 23l6 -27q16 -75 87 -75h149q36 0 60.5 24.5t24.5 60.5v445h-218v91h308v-531q0 -77 -52.5 -129t-128.5 -52h-138z" />
    <glyph glyph-name="K" unicode="K" horiz-adv-x="650" 
d="M104 712h91v-363l271 363h106l-207 -283l190 -290q36 -55 36 -116v-23h-89v23q0 33 -22 67l-170 259l-115 -159v-190h-91v712z" />
    <glyph glyph-name="L" unicode="L" horiz-adv-x="610" 
d="M104 0v712h91v-621h371v-91h-462z" />
    <glyph glyph-name="M" unicode="M" horiz-adv-x="806" 
d="M104 0v712h95l204 -460l204 460h94v-712h-91v482l-177 -382h-60l-177 382v-482h-92z" />
    <glyph glyph-name="N" unicode="N" horiz-adv-x="709" 
d="M104 0v712h96l313 -526v526h91v-712h-92l-317 536v-536h-91z" />
    <glyph glyph-name="O" unicode="O" horiz-adv-x="669" 
d="M265 0q-76 0 -128.5 52.5t-52.5 128.5v350q0 76 52.5 128.5t128.5 52.5h138q76 0 128.5 -52.5t52.5 -128.5v-350q0 -76 -52.5 -128.5t-128.5 -52.5h-138zM259 91h149q36 0 60.5 24.5t24.5 60.5v360q0 36 -24.5 60.5t-60.5 24.5h-149q-36 0 -60 -24.5t-24 -60.5v-360
q0 -36 24 -60.5t60 -24.5z" />
    <glyph glyph-name="P" unicode="P" horiz-adv-x="649" 
d="M104 0v712h319q76 0 128.5 -52.5t52.5 -128.5v-50q0 -76 -52.5 -128.5t-128.5 -52.5h-228v-300h-91zM195 391h234q36 0 60 24.5t24 59.5v61q0 36 -24 60.5t-60 24.5h-234v-230z" />
    <glyph glyph-name="Q" unicode="Q" horiz-adv-x="664" 
d="M591 -69l-94 95q-41 -26 -94 -26h-138q-76 0 -128.5 52.5t-52.5 128.5v350q0 76 52.5 128.5t128.5 52.5h138q76 0 128.5 -52.5t52.5 -128.5v-350q0 -53 -28 -97l94 -94zM259 91h149q36 0 60.5 24.5t24.5 60.5v360q0 36 -24.5 60.5t-60.5 24.5h-149q-36 0 -60 -24.5
t-24 -60.5v-360q0 -36 24 -60.5t60 -24.5z" />
    <glyph glyph-name="R" unicode="R" horiz-adv-x="684" 
d="M104 0v712h319q76 0 128.5 -52.5t52.5 -128.5v-40q0 -65 -40 -114t-102 -61l106 -176q36 -59 36 -115v-25h-89v25q0 31 -21 66l-132 220h-167v-311h-91zM195 401h234q36 0 60 24.5t24 59.5v51q0 36 -24 60.5t-60 24.5h-234v-220z" />
    <glyph glyph-name="S" unicode="S" horiz-adv-x="654" 
d="M256 0q-133 0 -178 150l-6 20l85 23l6 -27q16 -75 87 -75h148q38 0 61.5 23t23.5 67v34q0 24 -15.5 46.5t-41.5 29.5l-221 58q-55 14 -90.5 58.5t-35.5 111.5v20q0 74 46.5 123.5t125.5 49.5h144q142 0 178 -149l5 -21l-84 -23l-7 28q-9 36 -27 55t-58 19h-150
q-41 0 -62 -24t-21 -59v-17q0 -70 68 -88l211 -55q56 -14 90.5 -61.5t34.5 -101.5v-31q0 -78 -50.5 -131t-127.5 -53h-139z" />
    <glyph glyph-name="T" unicode="T" horiz-adv-x="588" 
d="M248 0v621h-204v91h499v-91h-204v-621h-91z" />
    <glyph glyph-name="U" unicode="U" horiz-adv-x="675" 
d="M268 0q-76 0 -128.5 52.5t-52.5 128.5v531h90v-536q0 -36 24 -60.5t60 -24.5h150q36 0 60.5 24.5t24.5 60.5v536h91v-531q0 -76 -52.5 -128.5t-128.5 -52.5h-138z" />
    <glyph glyph-name="V" unicode="V" horiz-adv-x="589" 
d="M242 0l-183 577q-13 41 -16.5 59t-3.5 53v23h91v-23q0 -42 7 -63l157 -497l158 497q7 21 7 63v23h90v-23q0 -38 -3.5 -56.5t-17.5 -63.5l-181 -569h-105z" />
    <glyph glyph-name="W" unicode="W" horiz-adv-x="715" 
d="M169 0l-96 566q-14 84 -14 113v33h89v-32q0 -24 11 -90l63 -385l106 398h56l105 -398l67 385q11 66 11 90v32h89v-33q0 -29 -14 -113l-99 -566h-85l-102 383l-102 -383h-85z" />
    <glyph glyph-name="X" unicode="X" horiz-adv-x="653" 
d="M74 0v68q0 26 14 45l182 243l-181 243q-11 14 -13 21t-2 24v68h90v-49q0 -19 8 -30l153 -202l154 202q9 11 9 30v49h89v-68q0 -17 -2.5 -24t-12.5 -21l-181 -243l182 -243q14 -19 14 -45v-68h-89v49q0 19 -9 30l-153 202l-154 -202q-9 -12 -9 -30v-49h-89z" />
    <glyph glyph-name="Y" unicode="Y" horiz-adv-x="598" 
d="M254 0v277l-190 320q-15 24 -15 47v68h89v-49q0 -14 6 -25l155 -266l155 266q6 11 6 25v49h88v-68q0 -24 -14 -47l-189 -320v-277h-91z" />
    <glyph glyph-name="Z" unicode="Z" horiz-adv-x="669" 
d="M84 0v85l387 536h-387v91h500v-82l-388 -539h388v-91h-500z" />
    <glyph glyph-name="bracketleft" unicode="[" horiz-adv-x="380" 
d="M116 -179v971h191v-79h-111v-814h111v-78h-191z" />
    <glyph glyph-name="backslash" unicode="\" horiz-adv-x="575" 
d="M434 -82l-395 846l66 30l395 -846z" />
    <glyph glyph-name="bracketright" unicode="]" horiz-adv-x="380" 
d="M72 -179v78h112v814h-112v79h191v-971h-191z" />
    <glyph glyph-name="asciicircum" unicode="^" horiz-adv-x="571" 
d="M421 269q-13 0 -22 9l-115 107l-113 -106q-9 -9 -23 -9q-13 0 -36 25q-9 9 -9 22q0 11 9 20l116 121q8 9 20 9h72q15 0 23 -9l115 -122q9 -9 9 -20q0 -12 -10 -22q-1 -1 -5.5 -6.5t-6.5 -7t-6.5 -5t-8.5 -5t-9 -1.5z" />
    <glyph glyph-name="underscore" unicode="_" horiz-adv-x="570" 
d="M54 0v76h461v-76h-461z" />
    <glyph glyph-name="grave" unicode="`" horiz-adv-x="475" 
d="M323 572q-5 0 -11 3l-180 93q-11 6 -11 16q0 3 4 11l20 38q6 10 20 10q5 0 9 -2l169 -113q10 -7 10 -17q0 -7 -2 -11l-9 -17q-6 -11 -19 -11z" />
    <glyph glyph-name="a" unicode="a" horiz-adv-x="577" 
d="M492 0h-83v52q-11 -27 -40.5 -41t-61.5 -14h-93q-69 0 -108.5 43t-39.5 104q0 53 28.5 93t83.5 51l191 37q39 7 39 54v3q0 20 -17.5 34t-46.5 14h-108q-53 0 -67 -53l-6 -22l-82 19l7 25q12 43 50.5 80t100.5 37h112q59 0 100 -38t41 -98v-380zM406 161v93q-7 -6 -30 -10
l-172 -34q-24 -5 -39 -21.5t-15 -40.5q0 -27 18 -46.5t45 -19.5h115q32 0 55 24t23 55z" />
    <glyph glyph-name="b" unicode="b" horiz-adv-x="600" 
d="M285 -3q-83 0 -110 52v-49h-86v712h92v-242q31 46 103 46h87q67 0 113.5 -46t46.5 -114v-199q0 -67 -46.5 -113.5t-113.5 -46.5h-86zM270 82h69q57 0 79.5 25t22.5 76v144q0 49 -23.5 76t-63.5 27h-77q-55 0 -77 -24t-22 -74v-145q0 -48 25.5 -76.5t66.5 -28.5z" />
    <glyph glyph-name="c" unicode="c" horiz-adv-x="553" 
d="M236 -3q-70 0 -118.5 48.5t-48.5 119.5v183q0 71 48.5 119.5t118.5 48.5h99q64 0 103.5 -37.5t54.5 -95.5l5 -19l-83 -21l-6 26q-13 59 -69 59h-108q-33 0 -54.5 -22t-21.5 -54v-191q0 -33 21.5 -55t54.5 -22h107q52 0 69 60l7 26l82 -21l-4 -19q-12 -55 -55.5 -94
t-102.5 -39h-99z" />
    <glyph glyph-name="d" unicode="d" horiz-adv-x="600" 
d="M229 -3q-67 0 -113.5 46.5t-46.5 113.5v199q0 67 46.5 113.5t113.5 46.5h87q72 0 104 -46v242h91v-712h-86v49q-26 -52 -110 -52h-86zM261 82h69q41 0 67 28.5t26 76.5v145q0 50 -22 74t-78 24h-77q-40 0 -63.5 -27t-23.5 -76v-144q0 -51 22.5 -76t79.5 -25z" />
    <glyph glyph-name="e" unicode="e" horiz-adv-x="581" 
d="M237 -3q-71 0 -119.5 48.5t-48.5 119.5v183q0 71 47.5 119.5t117.5 48.5h118q69 0 113.5 -48t44.5 -120v-105q0 -9 -7 -15.5t-17 -6.5h-330v-61q0 -33 22 -55.5t54 -22.5h115q58 0 76 57l8 24l81 -22l-6 -22q-14 -54 -59.5 -88t-104.5 -34h-105zM156 306h267v47
q0 32 -16.5 54.5t-50.5 22.5h-127q-33 0 -53 -22.5t-20 -54.5v-47z" />
    <glyph glyph-name="f" unicode="f" horiz-adv-x="391" 
d="M119 0v403h-60v86h60v84q0 59 39.5 99t97.5 40h92v-85h-83q-28 0 -42.5 -18t-14.5 -45v-75h106v-86h-106v-403h-89z" />
    <glyph glyph-name="g" unicode="g" horiz-adv-x="585" 
d="M241 -210q-58 0 -102 37.5t-61 95.5l-3 10l82 20l5 -15q22 -63 75 -63h93q33 0 55 22t22 54v120q-10 -21 -35 -34.5t-59 -13.5h-81q-67 0 -113.5 46.5t-46.5 113.5v173q0 67 47.5 113.5t113.5 46.5h69q33 0 63 -12t44 -34v43h87v-555q0 -70 -49 -119t-119 -49h-87z
M252 109h65q91 0 91 99v129q0 47 -25 70t-68 23h-55q-56 0 -78.5 -24t-22.5 -75v-118q0 -48 26 -76t67 -28z" />
    <glyph glyph-name="h" unicode="h" horiz-adv-x="597" 
d="M89 0v712h90v-243q31 47 101 47h79q67 0 112.5 -46t45.5 -113v-357h-88v327q0 103 -94 103h-64q-92 0 -92 -96v-334h-90z" />
    <glyph glyph-name="i" unicode="i" horiz-adv-x="475" 
d="M79 0v85h137v342h-111v86h200v-428h117v-85h-343zM225 626q-7 0 -12 5t-5 12v69q0 7 5 12t12 5h72q7 0 12 -5t5 -12v-69q0 -7 -5 -12t-12 -5h-72z" />
    <glyph glyph-name="j" unicode="j" horiz-adv-x="372" 
d="M29 -210v85h106q29 0 42 20t13 45v487h-116v86h204v-584q0 -59 -39 -99t-96 -40h-114zM198 626q-7 0 -12 5t-5 12v69q0 7 5 12t12 5h71q7 0 12.5 -5t5.5 -12v-69q0 -7 -5.5 -12t-12.5 -5h-71z" />
    <glyph glyph-name="k" unicode="k" horiz-adv-x="582" 
d="M89 0v712h90v-450l242 251h117l-174 -181l132 -196q33 -49 33 -110v-26h-89v26q0 39 -17 63l-126 177l-119 -130v-136h-89z" />
    <glyph glyph-name="l" unicode="l" horiz-adv-x="466" 
d="M59 0v85h138v542h-112v85h201v-627h115v-85h-342z" />
    <glyph glyph-name="m" unicode="m" horiz-adv-x="817" 
d="M89 0v513h87v-64q9 29 42 48t67 19h20q39 0 71 -17.5t47 -47.5q16 30 50 47.5t69 17.5h42q65 0 109 -46.5t44 -113.5v-356h-90v326q0 49 -23 76.5t-65 27.5h-16q-39 0 -62 -27.5t-23 -77.5v-325h-90v326q0 49 -23 76.5t-65 27.5h-12q-46 0 -67.5 -32t-21.5 -81v-317h-90z
" />
    <glyph glyph-name="n" unicode="n" horiz-adv-x="598" 
d="M89 0v513h88v-47q32 50 104 50h78q67 0 113.5 -46t46.5 -114v-356h-89v325q0 105 -95 105h-63q-92 0 -92 -98v-332h-91z" />
    <glyph glyph-name="o" unicode="o" horiz-adv-x="577" 
d="M233 -3q-70 0 -117 47t-47 117v192q0 70 47 116.5t117 46.5h108q71 0 118.5 -46.5t47.5 -116.5v-192q0 -70 -47.5 -117t-118.5 -47h-108zM231 82h114q33 0 54 21.5t21 55.5v195q0 34 -21 55t-54 21h-114q-30 0 -52.5 -20t-22.5 -56v-195q0 -34 21 -55.5t54 -21.5z" />
    <glyph glyph-name="p" unicode="p" horiz-adv-x="600" 
d="M89 -199v712h86v-49q29 52 110 52h86q67 0 113.5 -46t46.5 -114v-199q0 -67 -46.5 -113.5t-113.5 -46.5h-87q-71 0 -103 46v-242h-92zM277 83h77q40 0 63.5 27.5t23.5 75.5v144q0 51 -22.5 76t-79.5 25h-69q-41 0 -66.5 -28t-25.5 -77v-145q0 -50 22 -74t77 -24z" />
    <glyph glyph-name="q" unicode="q" horiz-adv-x="600" 
d="M420 -199v242q-33 -46 -104 -46h-87q-67 0 -113.5 46.5t-46.5 113.5v199q0 67 46.5 113.5t113.5 46.5h86q83 0 110 -52v49h86v-712h-91zM246 83h77q55 0 77.5 24t22.5 74v145q0 49 -26 77t-67 28h-69q-57 0 -79.5 -25t-22.5 -76v-144q0 -48 23.5 -75.5t63.5 -27.5z" />
    <glyph glyph-name="r" unicode="r" horiz-adv-x="393" 
d="M89 0v513h87v-54q28 54 110 54h75v-86h-86q-52 0 -74 -24.5t-22 -75.5v-327h-90z" />
    <glyph glyph-name="s" unicode="s" horiz-adv-x="568" 
d="M233 -3q-65 0 -105.5 39t-51.5 82l-7 29l83 21l7 -27q16 -59 70 -59h110q32 0 52.5 18t20.5 44v8q0 45 -43 54l-173 33q-56 11 -84.5 44.5t-28.5 76.5v17q0 63 46.5 101t114.5 38h90q63 0 103.5 -37.5t50.5 -79.5l5 -21l-82 -22l-6 19q-18 55 -67 55h-98q-70 0 -70 -57
v-6q0 -37 46 -46l178 -35q50 -10 77.5 -46t27.5 -81v-22q0 -58 -44.5 -99t-115.5 -41h-106z" />
    <glyph glyph-name="t" unicode="t" horiz-adv-x="408" 
d="M262 0q-127 0 -127 128v276h-79v85h79v169l90 25v-194h118v-85h-118v-264q0 -55 52 -55h78v-85h-93z" />
    <glyph glyph-name="u" unicode="u" horiz-adv-x="598" 
d="M239 -3q-67 0 -113.5 46.5t-46.5 113.5v356h89v-327q0 -103 95 -103h63q93 0 93 96v334h90v-513h-90v47q-32 -50 -102 -50h-78z" />
    <glyph glyph-name="v" unicode="v" horiz-adv-x="533" 
d="M212 0l-148 372q-14 35 -17 52t-3 56v33h89v-45q0 -26 6 -43l123 -329l131 329q7 16 7 46v42h89v-33q0 -40 -3 -58.5t-16 -49.5l-157 -372h-101z" />
    <glyph glyph-name="w" unicode="w" horiz-adv-x="695" 
d="M157 0l-96 391q-7 27 -7 77v45h85v-59q0 -24 6 -52l65 -271l110 316h51l110 -316l71 271q7 29 7 54v57h85v-45q0 -50 -7 -77l-104 -391h-88l-99 264l-100 -264h-89z" />
    <glyph glyph-name="x" unicode="x" horiz-adv-x="545" 
d="M67 0v76q0 23 13 37l141 153l-141 153q-13 14 -13 37v57h92v-39q0 -14 8 -23l105 -117l106 118q9 10 9 24v37h89v-65q0 -18 -12 -30l-143 -152l142 -152q13 -14 13 -37v-77h-89v57q0 14 -9 24l-106 114l-105 -114q-8 -8 -8 -24v-57h-92z" />
    <glyph glyph-name="y" unicode="y" horiz-adv-x="540" 
d="M70 -210v85h47q23 0 35 11.5t23 35.5l49 106l-162 342q-16 33 -16 55v88h89v-58q0 -23 6 -36l129 -286l129 285q6 13 6 37v58h88v-88q0 -22 -15 -54l-215 -466q-27 -59 -54 -87t-68 -28h-71z" />
    <glyph glyph-name="z" unicode="z" horiz-adv-x="537" 
d="M64 0v75l281 352h-280v86h396v-75l-281 -353h292v-85h-408z" />
    <glyph glyph-name="braceleft" unicode="{" horiz-adv-x="405" 
d="M285 -179q-55 0 -93.5 39t-38.5 94v266q0 23 -13 38.5t-36 15.5h-28v78h28q23 0 36 16t13 39v253q0 54 38.5 93t93.5 39h37v-79h-44q-19 0 -32.5 -14t-13.5 -34v-258q0 -60 -56 -94q56 -33 56 -93v-274q0 -19 13.5 -33t32.5 -14h44v-78h-37z" />
    <glyph glyph-name="bar" unicode="|" horiz-adv-x="401" 
d="M159 -179v971h82v-971h-82z" />
    <glyph glyph-name="braceright" unicode="}" horiz-adv-x="405" 
d="M83 -179v78h44q19 0 32.5 13.5t13.5 33.5v274q0 60 56 93q-56 34 -56 94v258q0 20 -13.5 34t-32.5 14h-44v79h38q54 0 93 -39t39 -93v-253q0 -23 13 -39t35 -16h28v-78h-28q-22 0 -35 -15.5t-13 -38.5v-266q0 -55 -39 -94t-93 -39h-38z" />
    <glyph glyph-name="asciitilde" unicode="~" horiz-adv-x="571" 
d="M119 294l-54 22l11 28q37 95 124 95q12 0 24.5 -2t28 -6t24.5 -7t28 -9.5t24 -8.5l51 -17q10 -3 18 -3q27 0 42 28l13 25l53 -23l-12 -28q-7 -18 -14 -29.5t-21 -28t-36 -25.5t-50 -9q-13 0 -26.5 2t-30.5 6.5t-28 8t-33 11t-31 10.5l-33 11q-12 4 -17 4q-31 0 -46 -34z
" />
    <glyph glyph-name="nbspace" unicode="&#xa0;" horiz-adv-x="305" 
 />
    <glyph glyph-name="exclamdown" unicode="&#xa1;" horiz-adv-x="342" 
d="M135 0q-9 0 -15.5 7t-6.5 16v318l19 142q3 23 24 23h31q20 0 23 -23l19 -142v-318q0 -8 -7 -15.5t-16 -7.5h-71zM137 592q-11 0 -19 8t-8 19v67q0 10 8.5 18t18.5 8h68q10 0 18.5 -8t8.5 -18v-67q0 -11 -8 -19t-19 -8h-68z" />
    <glyph glyph-name="cent" unicode="&#xa2;" 
d="M293 0v98l-22 2q-66 6 -110 53t-44 113v183q0 67 44 113.5t110 52.5l22 2v95h80v-95l24 -2q49 -4 93 -39.5t56 -81.5l7 -28l-83 -23l-7 24q-7 25 -28 44.5t-46 19.5h-109q-33 0 -54.5 -22t-21.5 -55v-193q0 -33 21.5 -55t54.5 -22h108q57 0 74 61l7 26l82 -21l-6 -28
q-10 -48 -52.5 -83t-96.5 -39l-23 -2v-98h-80z" />
    <glyph glyph-name="sterling" unicode="&#xa3;" 
d="M78 0v90h52l44 224h-88v89h105l36 180q12 59 57 94t108 35h20q123 0 159 -132l9 -33l-85 -23l-12 38q-11 34 -24.5 47t-47.5 13h-27q-62 0 -75 -71l-29 -148h125v-89h-143l-42 -224h372v-90h-514z" />
    <glyph glyph-name="currency" unicode="&#xa4;" horiz-adv-x="577" 
d="M498 214q0 -5 -5 -10l-36 -37q-7 -5 -10 -5q-7 0 -12 7l-40 46q-26 -14 -58 -14h-98q-32 0 -58 14l-39 -46q-5 -7 -12 -7q-3 0 -10 5l-36 37q-5 5 -5 10q0 4 6 12l46 39q-14 26 -14 57v112q0 32 14 58l-46 40q-6 6 -6 12q0 3 5 10l36 36q5 5 10 5q7 0 12 -7l40 -46
q28 13 57 13h98q29 0 58 -13l40 46q5 7 12 7q5 0 10 -5l36 -36q5 -7 5 -10q0 -6 -6 -12l-46 -40q14 -30 14 -58v-112q0 -31 -14 -57l46 -39q6 -8 6 -12zM395 321v114q0 25 -15.5 40.5t-39.5 15.5h-103q-22 0 -38.5 -14.5t-16.5 -41.5v-114q0 -25 15.5 -41t39.5 -16h103
q24 0 39.5 16t15.5 41z" />
    <glyph glyph-name="yen" unicode="&#xa5;" 
d="M290 0v158h-145v84h145v35l-190 320q-14 23 -14 47v68h88v-49q0 -14 6 -25l155 -266l155 266q6 11 6 25v49h89v-68q0 -23 -15 -47l-189 -320v-35h147v-84h-147v-158h-91z" />
    <glyph glyph-name="brokenbar" unicode="&#xa6;" horiz-adv-x="475" 
d="M196 428v284h82v-284h-82zM196 0v284h82v-284h-82z" />
    <glyph glyph-name="section" unicode="&#xa7;" 
d="M280 -66q-53 0 -90 31t-50 80l-3 11l82 23l4 -16q10 -42 49 -42h86q22 0 35.5 14t13.5 36v23q0 51 -45 65l-147 47q-39 12 -64 45.5t-25 78.5v45q0 39 24 68t51 36q-27 25 -27 60v34q0 61 38.5 100t98.5 39h72q53 0 89.5 -30.5t51.5 -80.5l3 -10l-83 -23l-5 14
q-9 23 -18.5 33.5t-28.5 10.5h-79q-22 0 -36 -14t-14 -37v-21q0 -52 46 -65l140 -42q43 -13 69 -47.5t26 -82.5v-47q0 -76 -70 -108q24 -19 24 -55v-33q0 -61 -39 -100.5t-100 -39.5h-79zM418 230q19 0 31 17.5t12 34.5v35q0 37 -34 48l-160 49q-8 2 -12 2q-19 0 -31.5 -17
t-12.5 -34v-36q0 -16 9.5 -29t24.5 -17l162 -51q8 -2 11 -2z" />
    <glyph glyph-name="dieresis" unicode="&#xa8;" horiz-adv-x="475" 
d="M307 598q-7 0 -13.5 6t-6.5 14v50q0 7 6 13t14 6h53q8 0 13.5 -5.5t5.5 -13.5v-50q0 -8 -6 -14t-14 -6h-52zM113 598q-7 0 -13 6t-6 14v50q0 8 6 13.5t13 5.5h53q8 0 13.5 -5.5t5.5 -13.5v-50q0 -8 -6 -14t-14 -6h-52z" />
    <glyph glyph-name="copyright" unicode="&#xa9;" horiz-adv-x="872" 
d="M330 0q-100 0 -171.5 70.5t-71.5 170.5v229q0 100 71.5 171t171.5 71h213q99 0 170 -71t71 -171v-229q0 -100 -71 -170.5t-170 -70.5h-213zM318 76h234q63 0 108.5 45t45.5 108v254q0 63 -45.5 108t-108.5 45h-234q-62 0 -107.5 -45t-45.5 -108v-254q0 -63 45.5 -108
t107.5 -45zM395 161q-43 0 -74 31.5t-31 74.5v180q0 43 31 74.5t74 31.5h82q39 0 69 -27t36 -67l-71 -20l-5 15q-9 26 -27 26h-88q-11 0 -19 -8t-8 -19v-192q0 -11 8 -19t19 -8h87q24 0 29 27l3 15l71 -20q-5 -41 -34.5 -68t-69.5 -27h-82z" />
    <glyph glyph-name="ordfeminine" unicode="&#xaa;" horiz-adv-x="407" 
d="M170 323q-53 0 -84 33t-31 80q0 40 22.5 71t64.5 39l138 27q25 5 25 34v2q0 28 -40 28h-78q-15 0 -25 -6t-13.5 -12.5t-6.5 -17.5l-3 -11l-71 18l4 14q9 31 41 60.5t78 29.5h80q47 0 78 -29t31 -76v-282h-74v32q-8 -16 -27.5 -25t-40.5 -9h-68zM169 397h84
q22 0 36.5 15.5t14.5 35.5v62q-7 -7 -21 -9l-119 -23q-34 -7 -34 -41q0 -16 11 -28t28 -12z" />
    <glyph glyph-name="guillemotleft" unicode="&#xab;" horiz-adv-x="621" 
d="M508 116q-10 0 -19 8l-190 172q-8 8 -8 19q0 13 8 19l190 173q9 8 19 8q8 0 18 -8l11 -10q9 -9 9 -20q0 -9 -9 -19l-122 -142l122 -144q9 -11 9 -19q0 -11 -9 -18l-10 -11q-10 -8 -19 -8zM275 116q-11 0 -19 8l-191 172q-8 8 -8 19q0 13 8 19l191 173q8 8 18 8t18 -8
l12 -10q8 -10 8 -20q0 -8 -8 -19l-123 -142l123 -144q8 -10 8 -19q0 -10 -8 -18l-11 -11q-10 -8 -18 -8z" />
    <glyph glyph-name="logicalnot" unicode="&#xac;" horiz-adv-x="571" 
d="M399 179v136h-306v78h383v-214h-77z" />
    <glyph glyph-name="sfthyphen" unicode="&#xad;" horiz-adv-x="487" 
d="M78 317v80h331v-80h-331z" />
    <glyph glyph-name="registered" unicode="&#xae;" horiz-adv-x="872" 
d="M330 0q-100 0 -171.5 70.5t-71.5 170.5v229q0 100 71.5 171t171.5 71h213q99 0 170 -71t71 -171v-229q0 -100 -71 -170.5t-170 -70.5h-213zM318 76h234q63 0 108.5 45t45.5 108v254q0 63 -45.5 108t-108.5 45h-234q-62 0 -107.5 -45t-45.5 -108v-254q0 -63 45.5 -108
t107.5 -45zM299 161v392h177q43 0 74 -31.5t31 -74.5v-23q0 -33 -18 -60t-48 -38l43 -68q15 -24 18.5 -38.5t3.5 -41.5v-17h-74v25q0 13 -7 26l-64 107h-60v-158h-76zM375 392h105q11 0 18.5 8t7.5 19v34q0 11 -7.5 19t-18.5 8h-105v-88z" />
    <glyph glyph-name="macron" unicode="&#xaf;" horiz-adv-x="475" 
d="M114 698h248v-75h-248v75z" />
    <glyph glyph-name="degree" unicode="&#xb0;" horiz-adv-x="357" 
d="M146 469q-35 0 -60 26t-25 62v67q0 36 25 62t60 26h64q35 0 61 -26.5t26 -61.5v-67q0 -35 -26 -61.5t-61 -26.5h-64zM149 532h59q9 0 17 8.5t8 16.5v67q0 8 -8 15t-17 7h-59q-9 0 -17 -7t-8 -15v-67q0 -8 8 -16.5t17 -8.5z" />
    <glyph glyph-name="plusminus" unicode="&#xb1;" horiz-adv-x="571" 
d="M247 119v198h-200v76h200v200h76v-200h199v-76h-199v-198h-76zM47 0v76h475v-76h-475z" />
    <glyph glyph-name="twosuperior" unicode="&#xb2;" horiz-adv-x="353" 
d="M69 415v51q0 49 32 68l109 62q19 12 19 28v10q0 10 -6.5 16.5t-16.5 6.5h-60q-18 0 -26 -34l-2 -8l-51 13l2 8q19 76 79 76h59q33 0 55 -22t22 -56v-17q0 -41 -49 -69l-89 -50q-14 -8 -17.5 -12t-3.5 -13v-3h159v-55h-215z" />
    <glyph glyph-name="threesuperior" unicode="&#xb3;" horiz-adv-x="353" 
d="M152 415q-68 0 -82 83l51 13l4 -18q5 -23 23 -23h57q10 0 16.5 6.5t6.5 16.5v26q0 23 -19 23h-53v52h53q19 0 19 22v18q0 10 -6.5 16.5t-16.5 6.5h-57q-10 0 -15 -5.5t-8 -17.5l-5 -18l-50 13q14 83 81 83h53q33 0 55.5 -23.5t22.5 -56.5v-12q0 -32 -20 -52
q20 -20 20 -52v-22q0 -33 -22.5 -56t-55.5 -23h-52z" />
    <glyph glyph-name="acute" unicode="&#xb4;" horiz-adv-x="475" 
d="M151 572q-14 0 -19 11l-8 17q-3 6 -3 11q0 10 10 17l169 113q4 2 9 2q14 0 20 -10l21 -38q3 -4 3 -11q0 -10 -11 -16l-180 -93q-6 -3 -11 -3z" />
    <glyph glyph-name="mu" unicode="&#xb5;" 
d="M135 -199q-15 0 -15 18v181q0 43 29 66q-29 38 -29 94v353h89v-327q0 -103 95 -103h63q92 0 92 96v334h91v-513h-91v47q-30 -50 -101 -50h-69q-44 0 -71 17q-8 -5 -8 -32v-163q0 -18 -16 -18h-59z" />
    <glyph glyph-name="paragraph" unicode="&#xb6;" horiz-adv-x="571" 
d="M294 -115v408h-52q-74 0 -127.5 53t-53.5 128v56q0 75 53 128.5t128 53.5h268v-827h-71v746h-74v-746h-71z" />
    <glyph glyph-name="periodcentered" unicode="&#xb7;" horiz-adv-x="380" 
d="M157 299q-9 0 -16.5 7.5t-7.5 17.5v63q0 10 7.5 17.5t16.5 7.5h65q10 0 16.5 -7.5t6.5 -17.5v-63q0 -10 -7 -17.5t-17 -7.5h-64z" />
    <glyph glyph-name="periodcentered" unicode="&#x22c5;" horiz-adv-x="380" 
d="M157 299q-9 0 -16.5 7.5t-7.5 17.5v63q0 10 7.5 17.5t16.5 7.5h65q10 0 16.5 -7.5t6.5 -17.5v-63q0 -10 -7 -17.5t-17 -7.5h-64z" />
    <glyph glyph-name="periodcentered" unicode="&#x2227;" horiz-adv-x="380" 
d="M157 299q-9 0 -16.5 7.5t-7.5 17.5v63q0 10 7.5 17.5t16.5 7.5h65q10 0 16.5 -7.5t6.5 -17.5v-63q0 -10 -7 -17.5t-17 -7.5h-64z" />
    <glyph glyph-name="periodcentered" unicode="&#x2224;" horiz-adv-x="380" 
d="M157 299q-9 0 -16.5 7.5t-7.5 17.5v63q0 10 7.5 17.5t16.5 7.5h65q10 0 16.5 -7.5t6.5 -17.5v-63q0 -10 -7 -17.5t-17 -7.5h-64z" />
    <glyph glyph-name="periodcentered" unicode="&#x2219;" horiz-adv-x="380" 
d="M157 299q-9 0 -16.5 7.5t-7.5 17.5v63q0 10 7.5 17.5t16.5 7.5h65q10 0 16.5 -7.5t6.5 -17.5v-63q0 -10 -7 -17.5t-17 -7.5h-64z" />
    <glyph glyph-name="cedilla" unicode="&#xb8;" horiz-adv-x="475" 
d="M197 -186q-4 0 -10 3l-24 11q-12 6 -12 17q0 6 2 10l79 194q4 12 18 12q3 0 9 -2l44 -21q12 -6 12 -17q0 -7 -2 -10l-98 -185q-6 -12 -18 -12z" />
    <glyph glyph-name="onesuperior" unicode="&#xb9;" horiz-adv-x="353" 
d="M93 415v54h57v189h-51v54h105v-243h54v-54h-165z" />
    <glyph glyph-name="ordmasculine" unicode="&#xba;" horiz-adv-x="407" 
d="M182 322q-53 0 -89.5 36t-36.5 90v139q0 54 36 89.5t90 35.5h74q54 0 90.5 -35.5t36.5 -89.5v-139q0 -54 -36.5 -90t-90.5 -36h-74zM181 397h77q21 0 35 13.5t14 35.5v142q0 22 -14 35.5t-35 13.5h-77q-20 0 -34.5 -13t-14.5 -36v-142q0 -22 14 -35.5t35 -13.5z" />
    <glyph glyph-name="guillemotright" unicode="&#xbb;" horiz-adv-x="621" 
d="M346 116q-10 0 -18 8l-11 11q-8 8 -8 18q0 9 8 19l122 144l-122 142q-8 9 -8 19q0 13 8 20l11 10q10 8 18 8q11 0 19 -8l191 -173q7 -6 7 -19q0 -12 -7 -19l-191 -172q-9 -8 -19 -8zM112 116q-10 0 -18 8l-11 11q-8 8 -8 18q0 9 8 19l122 144l-122 142q-8 9 -8 19
q0 13 8 20l12 10q8 8 18 8t18 -8l191 -173q7 -6 7 -19q0 -12 -7 -19l-191 -172q-9 -8 -19 -8z" />
    <glyph glyph-name="onequarter" unicode="&#xbc;" 
d="M458 0v67h-132v47l135 183h50v-178h31v-52h-31v-67h-53zM152 163l-38 42l428 364l37 -44zM96 415v54h57v189h-51v54h105v-243h54v-54h-165zM458 206l-65 -87h65v87z" />
    <glyph glyph-name="onehalf" unicode="&#xbd;" 
d="M357 0v51q0 49 32 68l109 62q19 12 19 28v10q0 10 -6.5 16.5t-16.5 6.5h-60q-18 0 -26 -34l-2 -8l-51 13l2 8q19 76 79 76h59q33 0 55 -22t22 -56v-17q0 -41 -49 -69l-89 -50q-14 -8 -17.5 -12t-3.5 -13v-3h159v-55h-215zM143 163l-38 42l427 364l37 -44zM98 415v54h57
v189h-51v54h105v-243h54v-54h-165z" />
    <glyph glyph-name="threequarters" unicode="&#xbe;" 
d="M479 0v67h-132v47l136 183h50v-178h31v-52h-31v-67h-54zM162 415q-67 0 -81 83l50 13l4 -18q5 -23 23 -23h57q22 0 22 23v26q0 23 -17 23h-53v52h53q17 0 17 22v18q0 23 -22 23h-57q-18 0 -23 -23l-4 -18l-51 13q14 83 82 83h52q33 0 55.5 -23.5t22.5 -56.5v-12
q0 -32 -20 -52q20 -20 20 -52v-22q0 -33 -22.5 -56t-55.5 -23h-52zM166 163l-38 42l427 364l37 -44zM479 119v87l-64 -87h64z" />
    <glyph glyph-name="questiondown" unicode="&#xbf;" horiz-adv-x="599" 
d="M244 0q-71 0 -117 45.5t-46 116.5v36q0 62 84 131l97 79q19 15 27 27.5t8 34.5v25q0 12 11 12h65q11 0 11 -12v-25q0 -42 -20.5 -73t-65.5 -68l-76 -62q-30 -25 -40.5 -39t-10.5 -37v-28q0 -32 20 -52t52 -20h137q60 0 77 74l6 28l84 -23q-12 -76 -55 -123t-117 -47h-131
zM306 592q-10 0 -18.5 8t-8.5 18v68q0 10 8.5 18t18.5 8h68q10 0 18.5 -8t8.5 -18v-68q0 -10 -8.5 -18t-18.5 -8h-68z" />
    <glyph glyph-name="Agrave" unicode="&#xc0;" horiz-adv-x="609" 
d="M54 0v31q0 41 11 74l194 607h91l194 -607q11 -33 11 -74v-31h-89v29q0 20 -3 32l-26 99h-264l-27 -99q-3 -12 -3 -32v-29h-89zM201 250h207l-104 316zM384 772q-5 0 -11 3l-180 93q-11 6 -11 16q0 3 4 11l20 38q6 10 20 10q5 0 9 -2l169 -113q10 -7 10 -17q0 -7 -2 -11
l-9 -17q-5 -11 -19 -11z" />
    <glyph glyph-name="Aacute" unicode="&#xc1;" horiz-adv-x="609" 
d="M54 0v31q0 41 11 74l194 607h91l194 -607q11 -33 11 -74v-31h-89v29q0 20 -3 32l-26 99h-264l-27 -99q-3 -12 -3 -32v-29h-89zM201 250h207l-104 316zM212 772q-14 0 -19 11l-8 17q-3 6 -3 11q0 10 10 17l169 113q4 2 9 2q14 0 20 -10l21 -38q3 -5 3 -11q0 -10 -11 -16
l-180 -93q-6 -3 -11 -3z" />
    <glyph glyph-name="Acircumflex" unicode="&#xc2;" horiz-adv-x="609" 
d="M54 0v31q0 41 11 74l194 607h91l194 -607q11 -33 11 -74v-31h-89v29q0 20 -3 32l-26 99h-264l-27 -99q-3 -12 -3 -32v-29h-89zM201 250h207l-104 316zM420 771q-9 0 -16 7l-106 95l-106 -94q-8 -7 -16 -7q-9 0 -15 7l-13 14q-6 7 -6 15t6 14l98 107q4 6 14 6h74
q10 0 15 -6l99 -107q6 -6 6 -14q0 -9 -6 -15l-13 -14q-8 -8 -15 -8z" />
    <glyph glyph-name="Atilde" unicode="&#xc3;" horiz-adv-x="609" 
d="M54 0v31q0 41 11 74l194 607h91l194 -607q11 -33 11 -74v-31h-89v29q0 20 -3 32l-26 99h-264l-27 -99q-3 -12 -3 -32v-29h-89zM201 250h207l-104 316zM157 788l-40 16l8 22q29 79 103 79q23 0 80 -19l70 -24q9 -3 17 -3q23 0 36 26l6 12l43 -18l-8 -18q-32 -72 -96 -72
q-35 0 -104 23l-52 18q-9 3 -16 3q-25 0 -38 -26z" />
    <glyph glyph-name="Adieresis" unicode="&#xc4;" horiz-adv-x="609" 
d="M54 0v31q0 41 11 74l194 607h91l194 -607q11 -33 11 -74v-31h-89v29q0 20 -3 32l-26 99h-264l-27 -99q-3 -12 -3 -32v-29h-89zM201 250h207l-104 316zM369 798q-7 0 -13.5 6t-6.5 14v50q0 7 6 13t14 6h53q8 0 13.5 -5.5t5.5 -13.5v-50q0 -8 -6 -14t-14 -6h-52zM175 798
q-7 0 -13 6t-6 14v50q0 8 6 13.5t13 5.5h53q8 0 13.5 -5.5t5.5 -13.5v-50q0 -8 -6 -14t-14 -6h-52z" />
    <glyph glyph-name="Aring" unicode="&#xc5;" horiz-adv-x="609" 
d="M48 0v31q0 41 11 74l194 607h91l194 -607q11 -33 11 -74v-31h-89v29q0 20 -3 32l-26 99h-264l-27 -99q-3 -12 -3 -32v-29h-89zM195 250h207l-104 316zM277 772q-27 0 -45.5 19.5t-18.5 47.5v42q0 27 18.5 47t45.5 20h40q27 0 47 -20t20 -47v-42q0 -28 -20 -47.5
t-47 -19.5h-40zM282 822h30q8 0 15 6t7 14v35q0 7 -7 13t-15 6h-30q-7 0 -13 -6t-6 -13v-35q0 -8 6 -14t13 -6z" />
    <glyph glyph-name="AE" unicode="&#xc6;" horiz-adv-x="955" 
d="M68 0v57q0 25 11 48l280 607h522v-91h-344v-212h254v-90h-254v-228h344v-91h-434v187h-228l-59 -126q-3 -8 -3 -20v-41h-89zM257 278h190v343h-36z" />
    <glyph glyph-name="Ccedilla" unicode="&#xc7;" horiz-adv-x="647" 
d="M274 -186q-6 0 -12 3l-24 11q-12 6 -12 17q0 4 3 10l58 145h-19q-76 0 -128.5 52.5t-52.5 128.5v350q0 76 52.5 128.5t128.5 52.5h139q79 0 125 -47t59 -123l-85 -23l-7 28q-19 74 -86 74h-151q-36 0 -60 -24.5t-24 -60.5v-361q0 -36 24 -60.5t60 -24.5h149q72 0 88 75
l6 28l84 -23q-12 -76 -58 -123t-125 -47h-23l-93 -175q-6 -11 -16 -11z" />
    <glyph glyph-name="Egrave" unicode="&#xc8;" horiz-adv-x="679" 
d="M104 0v712h500v-91h-409v-211h319v-91h-319v-228h409v-91h-500zM419 772q-5 0 -11 3l-180 93q-11 6 -11 16q0 3 4 11l20 38q6 10 20 10q5 0 9 -2l169 -113q10 -7 10 -17q0 -7 -2 -11l-9 -17q-6 -11 -19 -11z" />
    <glyph glyph-name="Eacute" unicode="&#xc9;" horiz-adv-x="679" 
d="M104 0v712h500v-91h-409v-211h319v-91h-319v-228h409v-91h-500zM247 772q-14 0 -19 11l-8 17q-3 6 -3 11q0 10 10 17l169 113q4 2 9 2q14 0 20 -10l21 -38q3 -4 3 -11q0 -10 -11 -16l-180 -93q-6 -3 -11 -3z" />
    <glyph glyph-name="Ecircumflex" unicode="&#xca;" horiz-adv-x="679" 
d="M104 0v712h500v-91h-409v-211h319v-91h-319v-228h409v-91h-500zM455 771q-9 0 -16 7l-106 95l-106 -94q-8 -7 -16 -7q-9 0 -15 7l-13 14q-6 7 -6 15t6 14l98 107q5 6 14 6h74q10 0 15 -6l99 -107q6 -6 6 -14q0 -9 -6 -15l-13 -14q-8 -8 -15 -8z" />
    <glyph glyph-name="Edieresis" unicode="&#xcb;" horiz-adv-x="679" 
d="M104 0v712h500v-91h-409v-211h319v-91h-319v-228h409v-91h-500zM404 798q-8 0 -14 6t-6 14v50q0 7 6 13t14 6h53q8 0 13.5 -5.5t5.5 -13.5v-50q0 -8 -6 -14t-14 -6h-52zM210 798q-7 0 -13 6t-6 14v50q0 8 5.5 13.5t13.5 5.5h53q8 0 13.5 -5.5t5.5 -13.5v-50q0 -8 -6 -14
t-14 -6h-52z" />
    <glyph glyph-name="Igrave" unicode="&#xcc;" horiz-adv-x="474" 
d="M85 0v91h106v530h-106v91h303v-91h-105v-530h105v-91h-303zM316 772q-5 0 -11 3l-180 93q-11 6 -11 16q0 3 4 11l20 38q6 10 20 10q5 0 9 -2l169 -113q10 -7 10 -17q0 -7 -2 -11l-9 -17q-5 -11 -19 -11z" />
    <glyph glyph-name="Iacute" unicode="&#xcd;" horiz-adv-x="474" 
d="M85 0v91h106v530h-106v91h303v-91h-105v-530h105v-91h-303zM144 772q-14 0 -19 11l-8 17q-3 6 -3 11q0 10 10 17l169 113q4 2 9 2q14 0 20 -10l21 -38q3 -5 3 -11q0 -10 -11 -16l-180 -93q-6 -3 -11 -3z" />
    <glyph glyph-name="Icircumflex" unicode="&#xce;" horiz-adv-x="474" 
d="M85 0v91h106v530h-106v91h303v-91h-105v-530h105v-91h-303zM352 771q-9 0 -16 7l-106 95l-106 -94q-8 -7 -16 -7q-9 0 -15 7l-13 14q-6 7 -6 15t6 14l98 107q5 6 14 6h74q10 0 15 -6l99 -107q6 -6 6 -14q0 -9 -6 -15l-13 -14q-8 -8 -15 -8z" />
    <glyph glyph-name="Idieresis" unicode="&#xcf;" horiz-adv-x="474" 
d="M85 0v91h106v530h-106v91h303v-91h-105v-530h105v-91h-303zM301 798q-7 0 -13.5 6t-6.5 14v50q0 7 6 13t14 6h53q8 0 13.5 -5.5t5.5 -13.5v-50q0 -8 -6 -14t-14 -6h-52zM107 798q-7 0 -13 6t-6 14v50q0 8 6 13.5t13 5.5h53q8 0 13.5 -5.5t5.5 -13.5v-50q0 -8 -6 -14
t-14 -6h-52z" />
    <glyph glyph-name="Eth" unicode="&#xd0;" horiz-adv-x="692" 
d="M104 0v316h-106v82h106v314h319q75 0 127.5 -52.5t52.5 -128.5v-350q0 -76 -52.5 -128.5t-127.5 -52.5h-319zM195 91h234q36 0 60 24.5t24 60.5v360q0 36 -24 60.5t-60 24.5h-234v-223h107v-82h-107v-225z" />
    <glyph glyph-name="Ntilde" unicode="&#xd1;" horiz-adv-x="709" 
d="M104 0v712h96l313 -526v526h91v-712h-92l-317 536v-536h-91zM207 788l-40 16l8 22q29 79 103 79q23 0 80 -19l70 -24q9 -3 17 -3q23 0 36 26l6 12l43 -18l-8 -18q-32 -72 -96 -72q-35 0 -104 23l-52 18q-9 3 -16 3q-25 0 -38 -26z" />
    <glyph glyph-name="Ograve" unicode="&#xd2;" horiz-adv-x="669" 
d="M265 0q-76 0 -128.5 52.5t-52.5 128.5v350q0 76 52.5 128.5t128.5 52.5h138q76 0 128.5 -52.5t52.5 -128.5v-350q0 -76 -52.5 -128.5t-128.5 -52.5h-138zM259 91h149q36 0 60.5 24.5t24.5 60.5v360q0 36 -24.5 60.5t-60.5 24.5h-149q-36 0 -60 -24.5t-24 -60.5v-360
q0 -36 24 -60.5t60 -24.5zM414 772q-5 0 -11 3l-180 93q-11 6 -11 16q0 3 4 11l20 38q6 10 20 10q5 0 9 -2l169 -113q10 -7 10 -17q0 -7 -2 -11l-9 -17q-5 -11 -19 -11z" />
    <glyph glyph-name="Oacute" unicode="&#xd3;" horiz-adv-x="669" 
d="M265 0q-76 0 -128.5 52.5t-52.5 128.5v350q0 76 52.5 128.5t128.5 52.5h138q76 0 128.5 -52.5t52.5 -128.5v-350q0 -76 -52.5 -128.5t-128.5 -52.5h-138zM259 91h149q36 0 60.5 24.5t24.5 60.5v360q0 36 -24.5 60.5t-60.5 24.5h-149q-36 0 -60 -24.5t-24 -60.5v-360
q0 -36 24 -60.5t60 -24.5zM242 772q-14 0 -19 11l-8 17q-3 6 -3 11q0 10 10 17l169 113q4 2 9 2q14 0 20 -10l21 -38q3 -4 3 -11q0 -10 -11 -16l-180 -93q-6 -3 -11 -3z" />
    <glyph glyph-name="Ocircumflex" unicode="&#xd4;" horiz-adv-x="669" 
d="M265 0q-76 0 -128.5 52.5t-52.5 128.5v350q0 76 52.5 128.5t128.5 52.5h138q76 0 128.5 -52.5t52.5 -128.5v-350q0 -76 -52.5 -128.5t-128.5 -52.5h-138zM259 91h149q36 0 60.5 24.5t24.5 60.5v360q0 36 -24.5 60.5t-60.5 24.5h-149q-36 0 -60 -24.5t-24 -60.5v-360
q0 -36 24 -60.5t60 -24.5zM450 771q-9 0 -16 7l-106 95l-106 -94q-8 -7 -16 -7q-9 0 -15 7l-13 14q-6 7 -6 15t6 14l98 107q4 6 14 6h74q10 0 15 -6l99 -107q6 -6 6 -14q0 -9 -6 -15l-13 -14q-8 -8 -15 -8z" />
    <glyph glyph-name="Otilde" unicode="&#xd5;" horiz-adv-x="669" 
d="M265 0q-76 0 -128.5 52.5t-52.5 128.5v350q0 76 52.5 128.5t128.5 52.5h138q76 0 128.5 -52.5t52.5 -128.5v-350q0 -76 -52.5 -128.5t-128.5 -52.5h-138zM259 91h149q36 0 60.5 24.5t24.5 60.5v360q0 36 -24.5 60.5t-60.5 24.5h-149q-36 0 -60 -24.5t-24 -60.5v-360
q0 -36 24 -60.5t60 -24.5zM187 788l-40 16l8 22q29 79 103 79q23 0 80 -19l70 -24q9 -3 17 -3q23 0 36 26l6 12l43 -18l-8 -18q-32 -72 -96 -72q-35 0 -104 23l-52 18q-9 3 -16 3q-25 0 -38 -26z" />
    <glyph glyph-name="Odieresis" unicode="&#xd6;" horiz-adv-x="669" 
d="M265 0q-76 0 -128.5 52.5t-52.5 128.5v350q0 76 52.5 128.5t128.5 52.5h138q76 0 128.5 -52.5t52.5 -128.5v-350q0 -76 -52.5 -128.5t-128.5 -52.5h-138zM259 91h149q36 0 60.5 24.5t24.5 60.5v360q0 36 -24.5 60.5t-60.5 24.5h-149q-36 0 -60 -24.5t-24 -60.5v-360
q0 -36 24 -60.5t60 -24.5zM399 798q-7 0 -13.5 6t-6.5 14v50q0 7 6 13t14 6h53q8 0 13.5 -5.5t5.5 -13.5v-50q0 -8 -6 -14t-14 -6h-52zM205 798q-7 0 -13 6t-6 14v50q0 8 6 13.5t13 5.5h53q8 0 13.5 -5.5t5.5 -13.5v-50q0 -8 -6 -14t-14 -6h-52z" />
    <glyph glyph-name="multiply" unicode="&#xd7;" horiz-adv-x="571" 
d="M153 154l-61 60l132 133l-132 133l61 60l132 -133l132 132l61 -60l-131 -132l131 -132l-61 -60l-132 132z" />
    <glyph glyph-name="Oslash" unicode="&#xd8;" horiz-adv-x="669" 
d="M106 -38l-63 46l62 88q-21 38 -21 84v352q0 76 52.5 128t127.5 52h140q59 0 108 -36l50 71l62 -45l-61 -86q21 -40 21 -84v-352q0 -75 -52.5 -127.5t-127.5 -52.5h-140q-61 0 -107 35zM171 191l293 416q-24 19 -55 19h-151q-37 0 -62 -26t-25 -62v-347zM258 86h151
q37 0 62.5 25.5t25.5 62.5v348l-292 -418q23 -18 53 -18z" />
    <glyph glyph-name="Ugrave" unicode="&#xd9;" horiz-adv-x="675" 
d="M268 0q-76 0 -128.5 52.5t-52.5 128.5v531h90v-536q0 -36 24 -60.5t60 -24.5h150q36 0 60.5 24.5t24.5 60.5v536h91v-531q0 -76 -52.5 -128.5t-128.5 -52.5h-138zM417 772q-5 0 -11 3l-180 93q-11 6 -11 16q0 3 4 11l20 38q6 10 20 10q5 0 9 -2l169 -113q10 -7 10 -17
q0 -7 -2 -11l-9 -17q-6 -11 -19 -11z" />
    <glyph glyph-name="Uacute" unicode="&#xda;" horiz-adv-x="675" 
d="M268 0q-76 0 -128.5 52.5t-52.5 128.5v531h90v-536q0 -36 24 -60.5t60 -24.5h150q36 0 60.5 24.5t24.5 60.5v536h91v-531q0 -76 -52.5 -128.5t-128.5 -52.5h-138zM245 772q-14 0 -19 11l-8 17q-3 6 -3 11q0 10 10 17l169 113q4 2 9 2q14 0 20 -10l21 -38q3 -4 3 -11
q0 -10 -11 -16l-180 -93q-6 -3 -11 -3z" />
    <glyph glyph-name="Ucircumflex" unicode="&#xdb;" horiz-adv-x="675" 
d="M268 0q-76 0 -128.5 52.5t-52.5 128.5v531h90v-536q0 -36 24 -60.5t60 -24.5h150q36 0 60.5 24.5t24.5 60.5v536h91v-531q0 -76 -52.5 -128.5t-128.5 -52.5h-138zM453 771q-9 0 -16 7l-106 95l-106 -94q-8 -7 -16 -7q-9 0 -15 7l-13 14q-6 7 -6 15t6 14l98 107q5 6 14 6
h74q10 0 15 -6l99 -107q6 -6 6 -14q0 -9 -6 -15l-13 -14q-8 -8 -15 -8z" />
    <glyph glyph-name="Udieresis" unicode="&#xdc;" horiz-adv-x="675" 
d="M268 0q-76 0 -128.5 52.5t-52.5 128.5v531h90v-536q0 -36 24 -60.5t60 -24.5h150q36 0 60.5 24.5t24.5 60.5v536h91v-531q0 -76 -52.5 -128.5t-128.5 -52.5h-138zM402 798q-8 0 -14 6t-6 14v50q0 7 6 13t14 6h53q8 0 13.5 -5.5t5.5 -13.5v-50q0 -8 -6 -14t-14 -6h-52z
M208 798q-7 0 -13 6t-6 14v50q0 8 5.5 13.5t13.5 5.5h53q8 0 13.5 -5.5t5.5 -13.5v-50q0 -8 -6 -14t-14 -6h-52z" />
    <glyph glyph-name="Yacute" unicode="&#xdd;" horiz-adv-x="598" 
d="M254 0v277l-190 320q-15 24 -15 47v68h89v-49q0 -14 6 -25l155 -266l155 266q6 11 6 25v49h88v-68q0 -24 -14 -47l-189 -320v-277h-91zM206 772q-14 0 -19 11l-8 17q-3 6 -3 11q0 10 10 17l169 113q4 2 9 2q14 0 20 -10l21 -38q3 -5 3 -11q0 -10 -11 -16l-180 -93
q-6 -3 -11 -3z" />
    <glyph glyph-name="Thorn" unicode="&#xde;" horiz-adv-x="649" 
d="M104 0v712h91v-119h228q76 0 128.5 -52t52.5 -128v-52q0 -76 -52.5 -128t-128.5 -52h-228v-181h-91zM195 271h234q36 0 60 24t24 60v64q0 36 -24 60.5t-60 24.5h-234v-233z" />
    <glyph glyph-name="germandbls" unicode="&#xdf;" horiz-adv-x="653" 
d="M94 -115v646q0 76 53 128.5t128 52.5h84q76 0 129 -52.5t53 -128.5v-31q0 -73 -49 -121q37 -19 59 -60.5t22 -88.5v-49q0 -76 -53 -128.5t-129 -52.5h-93v90h99q36 0 60 24.5t24 60.5v60q0 36 -22.5 60t-61.5 24h-99v90h74q37 0 57 25.5t20 58.5v44q0 36 -24 60.5
t-60 24.5h-97q-36 0 -60 -24.5t-24 -60.5v-652h-90z" />
    <glyph glyph-name="agrave" unicode="&#xe0;" horiz-adv-x="577" 
d="M492 0h-83v52q-11 -27 -40.5 -41t-61.5 -14h-93q-69 0 -108.5 43t-39.5 104q0 53 28.5 93t83.5 51l191 37q39 7 39 54v3q0 20 -17.5 34t-46.5 14h-108q-53 0 -67 -53l-6 -22l-82 19l7 25q12 43 50.5 80t100.5 37h112q59 0 100 -38t41 -98v-380zM406 161v93q-7 -6 -30 -10
l-172 -34q-24 -5 -39 -21.5t-15 -40.5q0 -27 18 -46.5t45 -19.5h115q32 0 55 24t23 55zM373 572q-5 0 -11 3l-180 93q-11 6 -11 16q0 3 4 11l20 38q6 10 20 10q5 0 9 -2l169 -113q10 -7 10 -17q0 -7 -2 -11l-9 -17q-6 -11 -19 -11z" />
    <glyph glyph-name="aacute" unicode="&#xe1;" horiz-adv-x="577" 
d="M492 0h-83v52q-11 -27 -40.5 -41t-61.5 -14h-93q-69 0 -108.5 43t-39.5 104q0 53 28.5 93t83.5 51l191 37q39 7 39 54v3q0 20 -17.5 34t-46.5 14h-108q-53 0 -67 -53l-6 -22l-82 19l7 25q12 43 50.5 80t100.5 37h112q59 0 100 -38t41 -98v-380zM406 161v93q-7 -6 -30 -10
l-172 -34q-24 -5 -39 -21.5t-15 -40.5q0 -27 18 -46.5t45 -19.5h115q32 0 55 24t23 55zM200 572q-14 0 -19 11l-8 17q-3 6 -3 11q0 10 10 17l169 113q4 2 9 2q14 0 20 -10l21 -38q3 -4 3 -11q0 -10 -11 -16l-180 -93q-6 -3 -11 -3z" />
    <glyph glyph-name="acircumflex" unicode="&#xe2;" horiz-adv-x="577" 
d="M492 0h-83v52q-11 -27 -40.5 -41t-61.5 -14h-93q-69 0 -108.5 43t-39.5 104q0 53 28.5 93t83.5 51l191 37q39 7 39 54v3q0 20 -17.5 34t-46.5 14h-108q-53 0 -67 -53l-6 -22l-82 19l7 25q12 43 50.5 80t100.5 37h112q59 0 100 -38t41 -98v-380zM406 161v93q-7 -6 -30 -10
l-172 -34q-24 -5 -39 -21.5t-15 -40.5q0 -27 18 -46.5t45 -19.5h115q32 0 55 24t23 55zM409 571q-9 0 -16 7l-106 95l-106 -94q-8 -7 -16 -7q-9 0 -15 7l-13 14q-6 7 -6 15t6 14l98 107q5 6 14 6h74q10 0 15 -6l99 -107q6 -6 6 -14q0 -9 -6 -15l-13 -14q-8 -8 -15 -8z" />
    <glyph glyph-name="atilde" unicode="&#xe3;" horiz-adv-x="577" 
d="M492 0h-83v52q-11 -27 -40.5 -41t-61.5 -14h-93q-69 0 -108.5 43t-39.5 104q0 53 28.5 93t83.5 51l191 37q39 7 39 54v3q0 20 -17.5 34t-46.5 14h-108q-53 0 -67 -53l-6 -22l-82 19l7 25q12 43 50.5 80t100.5 37h112q59 0 100 -38t41 -98v-380zM406 161v93q-7 -6 -30 -10
l-172 -34q-24 -5 -39 -21.5t-15 -40.5q0 -27 18 -46.5t45 -19.5h115q32 0 55 24t23 55zM141 588l-40 16l8 22q29 79 103 79q23 0 80 -19l70 -24q9 -3 17 -3q23 0 36 26l6 12l43 -18l-8 -18q-32 -72 -96 -72q-35 0 -104 23l-52 18q-9 3 -16 3q-25 0 -38 -26z" />
    <glyph glyph-name="adieresis" unicode="&#xe4;" horiz-adv-x="577" 
d="M492 0h-83v52q-11 -27 -40.5 -41t-61.5 -14h-93q-69 0 -108.5 43t-39.5 104q0 53 28.5 93t83.5 51l191 37q39 7 39 54v3q0 20 -17.5 34t-46.5 14h-108q-53 0 -67 -53l-6 -22l-82 19l7 25q12 43 50.5 80t100.5 37h112q59 0 100 -38t41 -98v-380zM406 161v93q-7 -6 -30 -10
l-172 -34q-24 -5 -39 -21.5t-15 -40.5q0 -27 18 -46.5t45 -19.5h115q32 0 55 24t23 55zM358 598q-8 0 -14 6t-6 14v50q0 7 6 13t14 6h53q8 0 13.5 -5.5t5.5 -13.5v-50q0 -8 -6 -14t-14 -6h-52zM164 598q-7 0 -13 6t-6 14v50q0 8 5.5 13.5t13.5 5.5h53q8 0 13.5 -5.5
t5.5 -13.5v-50q0 -8 -6 -14t-14 -6h-52z" />
    <glyph glyph-name="aring" unicode="&#xe5;" horiz-adv-x="577" 
d="M492 0h-83v52q-11 -27 -40.5 -41t-61.5 -14h-93q-69 0 -108.5 43t-39.5 104q0 53 28.5 93t83.5 51l191 37q39 7 39 54v3q0 20 -17.5 34t-46.5 14h-108q-53 0 -67 -53l-6 -22l-82 19l7 25q12 43 50.5 80t100.5 37h112q59 0 100 -38t41 -98v-380zM406 161v93q-7 -6 -30 -10
l-172 -34q-24 -5 -39 -21.5t-15 -40.5q0 -27 18 -46.5t45 -19.5h115q32 0 55 24t23 55zM267 572q-27 0 -45.5 19.5t-18.5 47.5v42q0 27 18.5 47t45.5 20h40q27 0 47 -20t20 -47v-42q0 -28 -20 -47.5t-47 -19.5h-40zM272 622h30q8 0 15 6t7 14v35q0 7 -7 13t-15 6h-30
q-7 0 -13 -6t-6 -13v-35q0 -8 6 -14t13 -6z" />
    <glyph glyph-name="ae" unicode="&#xe6;" horiz-adv-x="926" 
d="M217 -3q-69 0 -109 43t-40 104q0 53 29 93t84 51l191 37q39 7 39 54v3q0 20 -17.5 34t-46.5 14h-108q-53 0 -67 -53l-6 -22l-82 19l7 25q12 43 50.5 80t100.5 37h110q73 0 109 -57q44 57 122 57h114q69 0 113 -48t44 -120v-103q0 -9 -6.5 -15.5t-16.5 -6.5h-331v-63
q0 -33 22 -55.5t55 -22.5h116q57 0 75 57l8 24l81 -22l-7 -22q-17 -54 -60.5 -88t-101.5 -34h-102q-78 0 -124 58q-11 -27 -42 -42.5t-65 -15.5h-138zM216 82h124q69 0 69 76v96q-6 -6 -30 -10l-172 -34q-24 -5 -39 -21.5t-15 -40.5q0 -27 18 -46.5t45 -19.5zM500 307h269
v47q0 32 -17 54t-51 22h-127q-34 0 -54 -22t-20 -54v-47z" />
    <glyph glyph-name="ccedilla" unicode="&#xe7;" horiz-adv-x="553" 
d="M220 -186q-5 0 -11 3l-24 11q-12 6 -12 16q0 5 3 11l57 142h-3q-68 0 -114.5 49t-46.5 119v183q0 71 48.5 119.5t118.5 48.5h99q64 0 103.5 -37.5t54.5 -95.5l5 -19l-83 -21l-6 26q-13 59 -69 59h-108q-33 0 -54.5 -22t-21.5 -55v-191q0 -33 21.5 -55t54.5 -22h107
q54 0 69 60l7 27l82 -21l-4 -19q-12 -55 -55 -94t-101 -39h-9l-91 -172q-5 -11 -17 -11z" />
    <glyph glyph-name="egrave" unicode="&#xe8;" horiz-adv-x="581" 
d="M237 -3q-71 0 -119.5 48.5t-48.5 119.5v183q0 71 47.5 119.5t117.5 48.5h118q69 0 113.5 -48t44.5 -120v-105q0 -9 -7 -15.5t-17 -6.5h-330v-61q0 -33 22 -55.5t54 -22.5h115q58 0 76 57l8 24l81 -22l-6 -22q-14 -54 -59.5 -88t-104.5 -34h-105zM156 306h267v47
q0 32 -16.5 54.5t-50.5 22.5h-127q-33 0 -53 -22.5t-20 -54.5v-47zM379 572q-5 0 -11 3l-180 93q-11 6 -11 16q0 3 4 11l20 38q6 10 20 10q5 0 9 -2l169 -113q10 -7 10 -17q0 -7 -2 -11l-9 -17q-6 -11 -19 -11z" />
    <glyph glyph-name="eacute" unicode="&#xe9;" horiz-adv-x="581" 
d="M237 -3q-71 0 -119.5 48.5t-48.5 119.5v183q0 71 47.5 119.5t117.5 48.5h118q69 0 113.5 -48t44.5 -120v-105q0 -9 -7 -15.5t-17 -6.5h-330v-61q0 -33 22 -55.5t54 -22.5h115q58 0 76 57l8 24l81 -22l-6 -22q-14 -54 -59.5 -88t-104.5 -34h-105zM156 306h267v47
q0 32 -16.5 54.5t-50.5 22.5h-127q-33 0 -53 -22.5t-20 -54.5v-47zM206 572q-14 0 -19 11l-8 17q-3 6 -3 11q0 10 10 17l169 113q4 2 9 2q14 0 20 -10l21 -38q3 -4 3 -11q0 -10 -11 -16l-180 -93q-6 -3 -11 -3z" />
    <glyph glyph-name="ecircumflex" unicode="&#xea;" horiz-adv-x="581" 
d="M237 -3q-71 0 -119.5 48.5t-48.5 119.5v183q0 71 47.5 119.5t117.5 48.5h118q69 0 113.5 -48t44.5 -120v-105q0 -9 -7 -15.5t-17 -6.5h-330v-61q0 -33 22 -55.5t54 -22.5h115q58 0 76 57l8 24l81 -22l-6 -22q-14 -54 -59.5 -88t-104.5 -34h-105zM156 306h267v47
q0 32 -16.5 54.5t-50.5 22.5h-127q-33 0 -53 -22.5t-20 -54.5v-47zM415 571q-9 0 -16 7l-106 95l-106 -94q-8 -7 -16 -7q-9 0 -15 7l-13 14q-6 7 -6 15t6 14l98 107q5 6 14 6h74q10 0 15 -6l99 -107q6 -6 6 -14q0 -9 -6 -15l-13 -14q-8 -8 -15 -8z" />
    <glyph glyph-name="edieresis" unicode="&#xeb;" horiz-adv-x="581" 
d="M237 -3q-71 0 -119.5 48.5t-48.5 119.5v183q0 71 47.5 119.5t117.5 48.5h118q69 0 113.5 -48t44.5 -120v-105q0 -9 -7 -15.5t-17 -6.5h-330v-61q0 -33 22 -55.5t54 -22.5h115q58 0 76 57l8 24l81 -22l-6 -22q-14 -54 -59.5 -88t-104.5 -34h-105zM156 306h267v47
q0 32 -16.5 54.5t-50.5 22.5h-127q-33 0 -53 -22.5t-20 -54.5v-47zM364 598q-8 0 -14 6t-6 14v50q0 7 6 13t14 6h53q8 0 13.5 -5.5t5.5 -13.5v-50q0 -8 -6 -14t-14 -6h-52zM170 598q-7 0 -13 6t-6 14v50q0 8 5.5 13.5t13.5 5.5h53q8 0 13.5 -5.5t5.5 -13.5v-50q0 -8 -6 -14
t-14 -6h-52z" />
    <glyph glyph-name="igrave" unicode="&#xec;" horiz-adv-x="475" 
d="M79 0v85h137v342h-111v86h200v-428h117v-85h-343zM323 572q-5 0 -11 3l-180 93q-11 6 -11 16q0 3 4 11l20 38q6 10 20 10q5 0 9 -2l169 -113q10 -7 10 -17q0 -7 -2 -11l-9 -17q-6 -11 -19 -11z" />
    <glyph glyph-name="iacute" unicode="&#xed;" horiz-adv-x="475" 
d="M79 0v85h137v342h-111v86h200v-428h117v-85h-343zM150 572q-14 0 -19 11l-8 17q-3 6 -3 11q0 10 10 17l169 113q4 2 9 2q14 0 20 -10l21 -38q3 -4 3 -11q0 -10 -11 -16l-180 -93q-6 -3 -11 -3z" />
    <glyph glyph-name="icircumflex" unicode="&#xee;" horiz-adv-x="475" 
d="M79 0v85h137v342h-111v86h200v-428h117v-85h-343zM359 571q-9 0 -16 7l-106 95l-106 -94q-8 -7 -16 -7q-9 0 -15 7l-13 14q-6 7 -6 15t6 14l98 107q5 6 14 6h74q10 0 15 -6l99 -107q6 -6 6 -14q0 -9 -6 -15l-13 -14q-8 -8 -15 -8z" />
    <glyph glyph-name="idieresis" unicode="&#xef;" horiz-adv-x="475" 
d="M79 0v85h137v342h-111v86h200v-428h117v-85h-343zM308 598q-8 0 -14 6t-6 14v50q0 7 6 13t14 6h53q8 0 13.5 -5.5t5.5 -13.5v-50q0 -8 -6 -14t-14 -6h-52zM114 598q-7 0 -13 6t-6 14v50q0 8 5.5 13.5t13.5 5.5h53q8 0 13.5 -5.5t5.5 -13.5v-50q0 -8 -6 -14t-14 -6h-52z
" />
    <glyph glyph-name="eth" unicode="&#xf0;" horiz-adv-x="595" 
d="M234 -3q-70 0 -117.5 47t-47.5 117v185q0 67 46.5 113.5t113.5 46.5h86q76 0 103 -50v88q0 25 -4 38l-63 -35l-35 60l67 38q-12 15 -53 46l56 69q46 -31 73 -69l66 38l36 -61l-71 -40q17 -42 17 -101v-366q0 -70 -48 -117t-118 -47h-107zM242 82h102q33 0 54 21.5
t21 55.5v163q0 50 -22 74t-78 24h-74q-40 0 -63.5 -27t-23.5 -76v-151q0 -39 22 -61.5t62 -22.5z" />
    <glyph glyph-name="ntilde" unicode="&#xf1;" horiz-adv-x="598" 
d="M89 0v513h88v-47q32 50 104 50h78q67 0 113.5 -46t46.5 -114v-356h-89v325q0 105 -95 105h-63q-92 0 -92 -98v-332h-91zM153 588l-40 16l8 22q29 79 103 79q23 0 80 -19l70 -24q9 -3 17 -3q23 0 36 26l6 12l43 -18l-8 -18q-32 -72 -96 -72q-35 0 -104 23l-52 18
q-9 3 -16 3q-25 0 -38 -26z" />
    <glyph glyph-name="ograve" unicode="&#xf2;" horiz-adv-x="577" 
d="M233 -3q-70 0 -117 47t-47 117v192q0 70 47 116.5t117 46.5h108q71 0 118.5 -46.5t47.5 -116.5v-192q0 -70 -47.5 -117t-118.5 -47h-108zM231 82h114q33 0 54 21.5t21 55.5v195q0 34 -21 55t-54 21h-114q-30 0 -52.5 -20t-22.5 -56v-195q0 -34 21 -55.5t54 -21.5z
M373 572q-5 0 -11 3l-180 93q-11 6 -11 16q0 3 4 11l20 38q6 10 20 10q5 0 9 -2l169 -113q10 -7 10 -17q0 -7 -2 -11l-9 -17q-6 -11 -19 -11z" />
    <glyph glyph-name="oacute" unicode="&#xf3;" horiz-adv-x="577" 
d="M233 -3q-70 0 -117 47t-47 117v192q0 70 47 116.5t117 46.5h108q71 0 118.5 -46.5t47.5 -116.5v-192q0 -70 -47.5 -117t-118.5 -47h-108zM231 82h114q33 0 54 21.5t21 55.5v195q0 34 -21 55t-54 21h-114q-30 0 -52.5 -20t-22.5 -56v-195q0 -34 21 -55.5t54 -21.5z
M200 572q-14 0 -19 11l-8 17q-3 6 -3 11q0 10 10 17l169 113q4 2 9 2q14 0 20 -10l21 -38q3 -4 3 -11q0 -10 -11 -16l-180 -93q-6 -3 -11 -3z" />
    <glyph glyph-name="ocircumflex" unicode="&#xf4;" horiz-adv-x="577" 
d="M233 -3q-70 0 -117 47t-47 117v192q0 70 47 116.5t117 46.5h108q71 0 118.5 -46.5t47.5 -116.5v-192q0 -70 -47.5 -117t-118.5 -47h-108zM231 82h114q33 0 54 21.5t21 55.5v195q0 34 -21 55t-54 21h-114q-30 0 -52.5 -20t-22.5 -56v-195q0 -34 21 -55.5t54 -21.5z
M409 571q-9 0 -16 7l-106 95l-106 -94q-8 -7 -16 -7q-9 0 -15 7l-13 14q-6 7 -6 15t6 14l98 107q5 6 14 6h74q10 0 15 -6l99 -107q6 -6 6 -14q0 -9 -6 -15l-13 -14q-8 -8 -15 -8z" />
    <glyph glyph-name="otilde" unicode="&#xf5;" horiz-adv-x="577" 
d="M233 -3q-70 0 -117 47t-47 117v192q0 70 47 116.5t117 46.5h108q71 0 118.5 -46.5t47.5 -116.5v-192q0 -70 -47.5 -117t-118.5 -47h-108zM231 82h114q33 0 54 21.5t21 55.5v195q0 34 -21 55t-54 21h-114q-30 0 -52.5 -20t-22.5 -56v-195q0 -34 21 -55.5t54 -21.5z
M141 588l-40 16l8 22q29 79 103 79q23 0 80 -19l70 -24q9 -3 17 -3q23 0 36 26l6 12l43 -18l-8 -18q-32 -72 -96 -72q-35 0 -104 23l-52 18q-9 3 -16 3q-25 0 -38 -26z" />
    <glyph glyph-name="odieresis" unicode="&#xf6;" horiz-adv-x="577" 
d="M233 -3q-70 0 -117 47t-47 117v192q0 70 47 116.5t117 46.5h108q71 0 118.5 -46.5t47.5 -116.5v-192q0 -70 -47.5 -117t-118.5 -47h-108zM231 82h114q33 0 54 21.5t21 55.5v195q0 34 -21 55t-54 21h-114q-30 0 -52.5 -20t-22.5 -56v-195q0 -34 21 -55.5t54 -21.5z
M358 598q-8 0 -14 6t-6 14v50q0 7 6 13t14 6h53q8 0 13.5 -5.5t5.5 -13.5v-50q0 -8 -6 -14t-14 -6h-52zM164 598q-7 0 -13 6t-6 14v50q0 8 5.5 13.5t13.5 5.5h53q8 0 13.5 -5.5t5.5 -13.5v-50q0 -8 -6 -14t-14 -6h-52z" />
    <glyph glyph-name="divide" unicode="&#xf7;" horiz-adv-x="571" 
d="M62 312v85h446v-85h-446zM253 489q-10 0 -17.5 7.5t-7.5 17.5v65q0 10 7.5 17.5t17.5 7.5h66q10 0 18 -7.5t8 -17.5v-65q0 -10 -8 -17.5t-19 -7.5h-65zM253 103q-10 0 -17.5 7.5t-7.5 17.5v65q0 10 7.5 17.5t17.5 7.5h66q10 0 18 -7.5t8 -17.5v-65q0 -10 -8 -17.5
t-19 -7.5h-65z" />
    <glyph glyph-name="oslash" unicode="&#xf8;" horiz-adv-x="577" 
d="M117 -52l-62 45l48 68q-32 43 -32 99v194q0 69 47.5 115.5t116.5 46.5h110q35 0 68 -14l48 68l60 -44l-48 -69q37 -45 37 -103v-194q0 -69 -48 -116t-117 -47h-110q-41 0 -73 16zM237 80h112q33 0 54.5 22t21.5 56v190q0 18 -7 31l-206 -295q11 -4 25 -4zM160 141
l202 289q-8 3 -18 3h-111q-32 0 -54.5 -20t-22.5 -57v-190q0 -14 4 -25z" />
    <glyph glyph-name="ugrave" unicode="&#xf9;" horiz-adv-x="598" 
d="M239 -3q-67 0 -113.5 46.5t-46.5 113.5v356h89v-327q0 -103 95 -103h63q93 0 93 96v334h90v-513h-90v47q-32 -50 -102 -50h-78zM380 572q-5 0 -11 3l-180 93q-11 6 -11 16q0 3 4 11l20 38q6 10 20 10q5 0 9 -2l169 -113q10 -7 10 -17q0 -7 -2 -11l-9 -17q-5 -11 -19 -11z
" />
    <glyph glyph-name="uacute" unicode="&#xfa;" horiz-adv-x="598" 
d="M239 -3q-67 0 -113.5 46.5t-46.5 113.5v356h89v-327q0 -103 95 -103h63q93 0 93 96v334h90v-513h-90v47q-32 -50 -102 -50h-78zM207 572q-14 0 -19 11l-8 17q-3 6 -3 11q0 10 10 17l169 113q4 2 9 2q14 0 20 -10l21 -38q3 -4 3 -11q0 -10 -11 -16l-180 -93q-6 -3 -11 -3z
" />
    <glyph glyph-name="ucircumflex" unicode="&#xfb;" horiz-adv-x="598" 
d="M239 -3q-67 0 -113.5 46.5t-46.5 113.5v356h89v-327q0 -103 95 -103h63q93 0 93 96v334h90v-513h-90v47q-32 -50 -102 -50h-78zM416 571q-9 0 -16 7l-106 95l-106 -94q-8 -7 -16 -7q-9 0 -15 7l-13 14q-6 7 -6 15t6 14l98 107q5 6 14 6h74q10 0 15 -6l99 -107q6 -6 6 -14
q0 -9 -6 -15l-13 -14q-8 -8 -15 -8z" />
    <glyph glyph-name="udieresis" unicode="&#xfc;" horiz-adv-x="598" 
d="M239 -3q-67 0 -113.5 46.5t-46.5 113.5v356h89v-327q0 -103 95 -103h63q93 0 93 96v334h90v-513h-90v47q-32 -50 -102 -50h-78zM365 598q-7 0 -13.5 6t-6.5 14v50q0 7 6 13t14 6h53q8 0 13.5 -5.5t5.5 -13.5v-50q0 -8 -6 -14t-14 -6h-52zM171 598q-7 0 -13 6t-6 14v50
q0 8 6 13.5t13 5.5h53q8 0 13.5 -5.5t5.5 -13.5v-50q0 -8 -6 -14t-14 -6h-52z" />
    <glyph glyph-name="yacute" unicode="&#xfd;" horiz-adv-x="540" 
d="M70 -210v85h47q23 0 35 11.5t23 35.5l49 106l-162 342q-16 33 -16 55v88h89v-58q0 -23 6 -36l129 -286l129 285q6 13 6 37v58h88v-88q0 -22 -15 -54l-215 -466q-27 -59 -54 -87t-68 -28h-71zM182 572q-14 0 -19 11l-8 17q-3 6 -3 11q0 10 10 17l169 113q4 2 9 2
q14 0 20 -10l21 -38q3 -4 3 -11q0 -10 -11 -16l-180 -93q-6 -3 -11 -3z" />
    <glyph glyph-name="thorn" unicode="&#xfe;" horiz-adv-x="600" 
d="M89 -199v911h86v-248q29 52 110 52h86q67 0 113.5 -46t46.5 -114v-199q0 -67 -46.5 -113.5t-113.5 -46.5h-87q-71 0 -103 46v-242h-92zM277 83h77q40 0 63.5 27.5t23.5 75.5v144q0 51 -22.5 76t-79.5 25h-69q-41 0 -66.5 -28t-25.5 -77v-145q0 -50 22 -74t77 -24z" />
    <glyph glyph-name="ydieresis" unicode="&#xff;" horiz-adv-x="540" 
d="M70 -210v85h47q23 0 35 11.5t23 35.5l49 106l-162 342q-16 33 -16 55v88h89v-58q0 -23 6 -36l129 -286l129 285q6 13 6 37v58h88v-88q0 -22 -15 -54l-215 -466q-27 -59 -54 -87t-68 -28h-71zM340 598q-8 0 -14 6t-6 14v50q0 7 6 13t14 6h53q8 0 13.5 -5.5t5.5 -13.5v-50
q0 -8 -6 -14t-14 -6h-52zM146 598q-7 0 -13 6t-6 14v50q0 8 5.5 13.5t13.5 5.5h53q8 0 13.5 -5.5t5.5 -13.5v-50q0 -8 -6 -14t-14 -6h-52z" />
    <glyph glyph-name="Amacron" unicode="&#x100;" horiz-adv-x="609" 
d="M54 0v31q0 41 11 74l194 607h91l194 -607q11 -33 11 -74v-31h-89v29q0 20 -3 32l-26 99h-264l-27 -99q-3 -12 -3 -32v-29h-89zM201 250h207l-104 316zM181 875h248v-75h-248v75z" />
    <glyph glyph-name="amacron" unicode="&#x101;" horiz-adv-x="577" 
d="M492 0h-83v52q-11 -27 -40.5 -41t-61.5 -14h-93q-69 0 -108.5 43t-39.5 104q0 53 28.5 93t83.5 51l191 37q39 7 39 54v3q0 20 -17.5 34t-46.5 14h-108q-53 0 -67 -53l-6 -22l-82 19l7 25q12 43 50.5 80t100.5 37h112q59 0 100 -38t41 -98v-380zM406 161v93q-7 -6 -30 -10
l-172 -34q-24 -5 -39 -21.5t-15 -40.5q0 -27 18 -46.5t45 -19.5h115q32 0 55 24t23 55zM164 698h248v-75h-248v75z" />
    <glyph glyph-name="Abreve" unicode="&#x102;" horiz-adv-x="609" 
d="M54 0v31q0 41 11 74l194 607h91l194 -607q11 -33 11 -74v-31h-89v29q0 20 -3 32l-26 99h-264l-27 -99q-3 -12 -3 -32v-29h-89zM201 250h207l-104 316zM282 780q-40 0 -66.5 28.5t-26.5 69.5v57h70v-68q0 -10 7.5 -18t18.5 -8h38q12 0 20 8t8 18v68h71v-57
q0 -41 -28 -69.5t-68 -28.5h-44z" />
    <glyph glyph-name="abreve" unicode="&#x103;" horiz-adv-x="577" 
d="M492 0h-83v52q-11 -27 -40.5 -41t-61.5 -14h-93q-69 0 -108.5 43t-39.5 104q0 53 28.5 93t83.5 51l191 37q39 7 39 54v3q0 20 -17.5 34t-46.5 14h-108q-53 0 -67 -53l-6 -22l-82 19l7 25q12 43 50.5 80t100.5 37h112q59 0 100 -38t41 -98v-380zM406 161v93q-7 -6 -30 -10
l-172 -34q-24 -5 -39 -21.5t-15 -40.5q0 -27 18 -46.5t45 -19.5h115q32 0 55 24t23 55zM265 580q-40 0 -66.5 28.5t-26.5 69.5v57h70v-68q0 -10 7.5 -18t18.5 -8h38q12 0 20 8t8 18v68h71v-57q0 -41 -28 -69.5t-68 -28.5h-44z" />
    <glyph glyph-name="Aogonek" unicode="&#x104;" horiz-adv-x="609" 
d="M585 -166q-23 -20 -43 -26t-51 -7h-3q-47 0 -73 23.5t-26 63.5q0 59 77 114v27q0 20 -3 32l-26 99h-264l-27 -99q-3 -12 -3 -32v-29h-89v31q0 41 11 74l194 607h91l194 -607q11 -33 11 -74v-31h-27q-32 -40 -42.5 -60t-10.5 -41q0 -13 9 -22t24 -9h6q20 0 42 15zM201 250
h207l-104 316z" />
    <glyph glyph-name="aogonek" unicode="&#x105;" horiz-adv-x="577" 
d="M528 -166q-23 -20 -43 -26t-51 -7h-3q-47 0 -73 23.5t-26 63.5q0 59 77 114v50q-11 -27 -40.5 -41t-61.5 -14h-93q-69 0 -108.5 43t-39.5 104q0 53 28.5 93t83.5 51l191 37q39 7 39 54v3q0 20 -17.5 34t-46.5 14h-108q-53 0 -67 -53l-6 -22l-82 19l7 25q12 43 50.5 80
t100.5 37h112q59 0 100 -38t41 -98v-380h-21q-32 -40 -42.5 -60t-10.5 -41q0 -13 9 -22t24 -9h6q20 0 42 15zM406 161v93q-7 -6 -30 -10l-172 -34q-24 -5 -39 -21.5t-15 -40.5q0 -27 18 -46.5t45 -19.5h115q32 0 55 24t23 55z" />
    <glyph glyph-name="Cacute" unicode="&#x106;" horiz-adv-x="647" 
d="M268 0q-76 0 -128.5 52.5t-52.5 128.5v350q0 76 52.5 128.5t128.5 52.5h139q79 0 125 -47t59 -123l-85 -23l-7 28q-19 74 -86 74h-151q-36 0 -60 -24.5t-24 -60.5v-360q0 -36 24 -60.5t60 -24.5h149q72 0 88 75l6 27l84 -23q-12 -76 -58 -123t-125 -47h-138zM245 772
q-14 0 -19 11l-8 17q-3 6 -3 11q0 10 10 17l169 113q4 2 9 2q14 0 20 -10l21 -38q3 -4 3 -11q0 -10 -11 -16l-180 -93q-6 -3 -11 -3z" />
    <glyph glyph-name="cacute" unicode="&#x107;" horiz-adv-x="553" 
d="M236 -3q-70 0 -118.5 48.5t-48.5 119.5v183q0 71 48.5 119.5t118.5 48.5h99q64 0 103.5 -37.5t54.5 -95.5l5 -19l-83 -21l-6 26q-13 59 -69 59h-108q-33 0 -54.5 -22t-21.5 -54v-191q0 -33 21.5 -55t54.5 -22h107q52 0 69 60l7 26l82 -21l-4 -19q-12 -55 -55.5 -94
t-102.5 -39h-99zM198 572q-14 0 -19 11l-8 17q-3 6 -3 11q0 10 10 17l169 113q4 2 9 2q14 0 20 -10l21 -38q3 -4 3 -11q0 -10 -11 -16l-180 -93q-6 -3 -11 -3z" />
    <glyph glyph-name="Ccaron" unicode="&#x10c;" horiz-adv-x="647" 
d="M268 0q-76 0 -128.5 52.5t-52.5 128.5v350q0 76 52.5 128.5t128.5 52.5h139q79 0 125 -47t59 -123l-85 -23l-7 28q-19 74 -86 74h-151q-36 0 -60 -24.5t-24 -60.5v-360q0 -36 24 -60.5t60 -24.5h149q72 0 88 75l6 27l84 -23q-12 -76 -58 -123t-125 -47h-138zM303 772
q-10 0 -15 6l-100 106q-7 7 -7 15q0 9 6 15l13 13q8 8 15 8q9 0 16 -6l106 -96l106 95q7 7 16 7t15 -7l12 -14q7 -7 7 -15t-6 -14l-101 -107q-4 -6 -14 -6h-69z" />
    <glyph glyph-name="ccaron" unicode="&#x10d;" horiz-adv-x="553" 
d="M236 -3q-70 0 -118.5 48.5t-48.5 119.5v183q0 71 48.5 119.5t118.5 48.5h99q64 0 103.5 -37.5t54.5 -95.5l5 -19l-83 -21l-6 26q-13 59 -69 59h-108q-33 0 -54.5 -22t-21.5 -54v-191q0 -33 21.5 -55t54.5 -22h107q52 0 69 60l7 26l82 -21l-4 -19q-12 -55 -55.5 -94
t-102.5 -39h-99zM251 572q-10 0 -15 6l-100 106q-7 7 -7 15q0 9 6 15l13 13q8 8 15 8q9 0 16 -6l106 -96l106 95q7 7 16 7t15 -7l12 -14q7 -7 7 -15t-6 -14l-101 -107q-4 -6 -14 -6h-69z" />
    <glyph glyph-name="Dcaron" unicode="&#x10e;" horiz-adv-x="692" 
d="M104 0v712h319q76 0 128.5 -52.5t52.5 -128.5v-350q0 -76 -52.5 -128.5t-128.5 -52.5h-319zM195 91h234q36 0 60 24.5t24 60.5v360q0 36 -24 60.5t-60 24.5h-234v-530zM312 772q-10 0 -15 6l-100 106q-7 7 -7 15q0 9 6 15l13 13q8 8 15 8q8 0 16 -6l106 -96l106 95
q7 7 16 7t15 -7l12 -14q7 -7 7 -15t-6 -14l-101 -107q-5 -6 -14 -6h-69z" />
    <glyph glyph-name="dcaron" unicode="&#x10f;" horiz-adv-x="600" 
d="M229 -3q-67 0 -113.5 46.5t-46.5 113.5v199q0 67 46.5 113.5t113.5 46.5h87q72 0 104 -46v242h91v-712h-86v49q-26 -52 -110 -52h-86zM261 82h69q41 0 67 28.5t26 76.5v145q0 50 -22 74t-78 24h-77q-40 0 -63.5 -27t-23.5 -76v-144q0 -51 22.5 -76t79.5 -25zM586 513
q-6 0 -10 3l-18 9q-12 6 -12 17q0 6 1 10l63 166q6 12 18 12q5 0 9 -2l44 -21q12 -5 12 -17q0 -7 -1 -10l-88 -155q-8 -12 -18 -12z" />
    <glyph glyph-name="Dcroat" unicode="&#x110;" horiz-adv-x="692" 
d="M104 0v316h-106v82h106v314h319q75 0 127.5 -52.5t52.5 -128.5v-350q0 -76 -52.5 -128.5t-127.5 -52.5h-319zM195 91h234q36 0 60 24.5t24 60.5v360q0 36 -24 60.5t-60 24.5h-234v-223h107v-82h-107v-225z" />
    <glyph glyph-name="dcroat" unicode="&#x111;" horiz-adv-x="600" 
d="M304 650h116v62h91v-62h41v-75h-41v-575h-86v49q-26 -52 -110 -52h-86q-67 0 -113.5 46.5t-46.5 113.5v199q0 67 46.5 113.5t113.5 46.5h87q72 0 104 -46v105h-116v75zM261 82h69q41 0 67 28.5t26 76.5v145q0 50 -22 74t-78 24h-77q-40 0 -63.5 -27t-23.5 -76v-144
q0 -51 22.5 -76t79.5 -25z" />
    <glyph glyph-name="Emacron" unicode="&#x112;" horiz-adv-x="679" 
d="M104 0v712h500v-91h-409v-211h319v-91h-319v-228h409v-91h-500zM235 875h248v-75h-248v75z" />
    <glyph glyph-name="emacron" unicode="&#x113;" horiz-adv-x="581" 
d="M237 -3q-71 0 -119.5 48.5t-48.5 119.5v183q0 71 47.5 119.5t117.5 48.5h118q69 0 113.5 -48t44.5 -120v-105q0 -9 -7 -15.5t-17 -6.5h-330v-61q0 -33 22 -55.5t54 -22.5h115q58 0 76 57l8 24l81 -22l-6 -22q-14 -54 -59.5 -88t-104.5 -34h-105zM156 306h267v47
q0 32 -16.5 54.5t-50.5 22.5h-127q-33 0 -53 -22.5t-20 -54.5v-47zM166 698h248v-75h-248v75z" />
    <glyph glyph-name="Edotaccent" unicode="&#x116;" horiz-adv-x="679" 
d="M104 0v712h500v-91h-409v-211h319v-91h-319v-228h409v-91h-500zM306 798q-8 0 -13.5 6t-5.5 14v65q0 7 6 13t13 6h66q8 0 13.5 -6t5.5 -13v-65q0 -8 -5.5 -14t-13.5 -6h-66z" />
    <glyph glyph-name="edotaccent" unicode="&#x117;" horiz-adv-x="581" 
d="M237 -3q-71 0 -119.5 48.5t-48.5 119.5v183q0 71 47.5 119.5t117.5 48.5h118q69 0 113.5 -48t44.5 -120v-105q0 -9 -7 -15.5t-17 -6.5h-330v-61q0 -33 22 -55.5t54 -22.5h115q58 0 76 57l8 24l81 -22l-6 -22q-14 -54 -59.5 -88t-104.5 -34h-105zM156 306h267v47
q0 32 -16.5 54.5t-50.5 22.5h-127q-33 0 -53 -22.5t-20 -54.5v-47zM260 625q-8 0 -13.5 6t-5.5 14v65q0 7 6 13t13 6h66q8 0 13.5 -6t5.5 -13v-65q0 -8 -5.5 -14t-13.5 -6h-66z" />
    <glyph glyph-name="Eogonek" unicode="&#x118;" horiz-adv-x="679" 
d="M104 0v712h500v-91h-409v-211h319v-91h-319v-228h409v-91h-45q-32 -40 -42.5 -60t-10.5 -41q0 -13 9 -22t24 -9h6q19 0 42 15l29 -49q-23 -20 -43 -26t-51 -7h-3q-47 0 -73 23.5t-26 63.5q0 59 74 112h-390z" />
    <glyph glyph-name="eogonek" unicode="&#x119;" horiz-adv-x="581" 
d="M237 -3q-71 0 -119.5 48.5t-48.5 119.5v183q0 71 47.5 119.5t117.5 48.5h118q69 0 113.5 -48t44.5 -120v-105q0 -9 -7 -15.5t-17 -6.5h-330v-61q0 -33 22 -55.5t54 -22.5h115q58 0 76 57l8 24l81 -22l-6 -22q-12 -44 -45.5 -76t-79.5 -42q-33 -41 -43.5 -61t-10.5 -41
q0 -13 9 -22t24 -9h6q20 0 42 15l29 -49q-23 -20 -43 -26t-51 -7h-3q-47 0 -73 23.5t-26 63.5q0 58 70 109h-74zM156 306h267v47q0 32 -16.5 54.5t-50.5 22.5h-127q-33 0 -53 -22.5t-20 -54.5v-47z" />
    <glyph glyph-name="Ecaron" unicode="&#x11a;" horiz-adv-x="679" 
d="M104 0v712h500v-91h-409v-211h319v-91h-319v-228h409v-91h-500zM305 772q-10 0 -15 6l-100 106q-7 7 -7 15q0 9 6 15l13 13q8 8 15 8q9 0 16 -6l106 -96l106 95q7 7 16 7t15 -7l12 -14q7 -7 7 -15t-6 -14l-101 -107q-4 -6 -14 -6h-69z" />
    <glyph glyph-name="ecaron" unicode="&#x11b;" horiz-adv-x="581" 
d="M237 -3q-71 0 -119.5 48.5t-48.5 119.5v183q0 71 47.5 119.5t117.5 48.5h118q69 0 113.5 -48t44.5 -120v-105q0 -9 -7 -15.5t-17 -6.5h-330v-61q0 -33 22 -55.5t54 -22.5h115q58 0 76 57l8 24l81 -22l-6 -22q-14 -54 -59.5 -88t-104.5 -34h-105zM156 306h267v47
q0 32 -16.5 54.5t-50.5 22.5h-127q-33 0 -53 -22.5t-20 -54.5v-47zM259 572q-10 0 -15 6l-100 106q-7 7 -7 15q0 9 6 15l13 13q8 8 15 8q9 0 16 -6l106 -96l106 95q7 7 16 7t15 -7l12 -14q7 -7 7 -15t-6 -14l-101 -107q-4 -6 -14 -6h-69z" />
    <glyph glyph-name="Gbreve" unicode="&#x11e;" horiz-adv-x="668" 
d="M268 0q-76 0 -128.5 52.5t-52.5 128.5v350q0 72 53 126.5t128 54.5h139q79 0 125 -47t59 -123l-85 -23l-7 28q-19 74 -86 74h-151q-35 0 -59.5 -26.5t-24.5 -58.5v-360q0 -32 24.5 -58.5t59.5 -26.5h150q35 0 59.5 24.5t24.5 60.5v143h-147v88h238v-226
q0 -76 -52.5 -128.5t-128.5 -52.5h-138zM315 780q-40 0 -66.5 28.5t-26.5 69.5v57h70v-68q0 -10 7.5 -18t18.5 -8h38q12 0 20 8t8 18v68h71v-57q0 -41 -28 -69.5t-68 -28.5h-44z" />
    <glyph glyph-name="gbreve" unicode="&#x11f;" horiz-adv-x="585" 
d="M241 -210q-58 0 -102 37.5t-61 95.5l-3 10l82 20l5 -15q22 -63 75 -63h93q33 0 55 22t22 54v120q-10 -21 -35 -34.5t-59 -13.5h-81q-67 0 -113.5 46.5t-46.5 113.5v173q0 67 47.5 113.5t113.5 46.5h69q33 0 63 -12t44 -34v43h87v-555q0 -70 -49 -119t-119 -49h-87z
M252 109h65q91 0 91 99v129q0 47 -25 70t-68 23h-55q-56 0 -78.5 -24t-22.5 -75v-118q0 -48 26 -76t67 -28zM269 580q-40 0 -66.5 28.5t-26.5 69.5v57h70v-68q0 -10 7.5 -18t18.5 -8h38q12 0 20 8t8 18v68h71v-57q0 -41 -28 -69.5t-68 -28.5h-44z" />
    <glyph glyph-name="Gcommaaccent" unicode="&#x122;" horiz-adv-x="668" 
d="M268 0q-76 0 -128.5 52.5t-52.5 128.5v350q0 72 53 126.5t128 54.5h139q79 0 125 -47t59 -123l-85 -23l-7 28q-19 74 -86 74h-151q-35 0 -59.5 -26.5t-24.5 -58.5v-360q0 -32 24.5 -58.5t59.5 -26.5h150q35 0 59.5 24.5t24.5 60.5v143h-147v88h238v-226
q0 -76 -52.5 -128.5t-128.5 -52.5h-138zM292 -232q-6 0 -10 3l-18 9q-12 6 -12 17q0 6 1 10l63 166q6 12 18 12q5 0 9 -2l44 -21q12 -5 12 -17q0 -7 -1 -10l-88 -155q-8 -12 -18 -12z" />
    <glyph glyph-name="gcommaaccent" unicode="&#x123;" horiz-adv-x="585" 
d="M241 -210q-58 0 -102 37.5t-61 95.5l-3 10l82 20l5 -15q22 -63 75 -63h93q33 0 55 22t22 54v120q-10 -21 -35 -34.5t-59 -13.5h-81q-67 0 -113.5 46.5t-46.5 113.5v173q0 67 47.5 113.5t113.5 46.5h69q33 0 63 -12t44 -34v43h87v-555q0 -70 -49 -119t-119 -49h-87z
M252 109h65q91 0 91 99v129q0 47 -25 70t-68 23h-55q-56 0 -78.5 -24t-22.5 -75v-118q0 -48 26 -76t67 -28zM332 772q4 0 9 -3l18 -9q12 -6 12 -17q0 -6 -1 -10l-63 -166q-6 -12 -18 -12q-5 0 -9 2l-44 21q-12 5 -12 17q0 7 1 10l88 155q8 12 19 12z" />
    <glyph glyph-name="Imacron" unicode="&#x12a;" horiz-adv-x="474" 
d="M85 0v91h106v530h-106v91h303v-91h-105v-530h105v-91h-303zM113 875h248v-75h-248v75z" />
    <glyph glyph-name="imacron" unicode="&#x12b;" horiz-adv-x="475" 
d="M79 0v85h137v342h-111v86h200v-428h117v-85h-343zM114 698h248v-75h-248v75z" />
    <glyph glyph-name="Iogonek" unicode="&#x12e;" horiz-adv-x="474" 
d="M85 0v91h106v530h-106v91h303v-91h-105v-530h105v-91h-45q-32 -40 -42.5 -60t-10.5 -41q0 -13 9 -22t24 -9h6q19 0 42 15l29 -49q-23 -20 -43 -26t-51 -7h-3q-47 0 -73 23.5t-26 63.5q0 59 74 112h-193z" />
    <glyph glyph-name="iogonek" unicode="&#x12f;" horiz-adv-x="475" 
d="M79 0v85h137v342h-111v86h200v-428h117v-85h-46q-32 -40 -42.5 -60t-10.5 -41q0 -13 9 -22t24 -9h6q20 0 42 15l29 -49q-23 -20 -43 -26t-51 -7h-3q-47 0 -73 23.5t-26 63.5q0 59 74 112h-232zM225 626q-7 0 -12 5t-5 12v69q0 7 5 12t12 5h72q7 0 12 -5t5 -12v-69
q0 -7 -5 -12t-12 -5h-72z" />
    <glyph glyph-name="Idotaccent" unicode="&#x130;" horiz-adv-x="474" 
d="M85 0v91h106v530h-106v91h303v-91h-105v-530h105v-91h-303zM203 798q-8 0 -13.5 6t-5.5 14v65q0 7 6 13t13 6h66q8 0 13.5 -6t5.5 -13v-65q0 -8 -5.5 -14t-13.5 -6h-66z" />
    <glyph glyph-name="dotlessi" unicode="&#x131;" horiz-adv-x="475" 
d="M79 0v85h137v342h-111v86h200v-428h117v-85h-343z" />
    <glyph glyph-name="Kcommaaccent" unicode="&#x136;" horiz-adv-x="650" 
d="M104 712h91v-363l271 363h106l-207 -283l190 -290q36 -55 36 -116v-23h-89v23q0 33 -22 67l-170 259l-115 -159v-190h-91v712zM284 -232q-6 0 -10 3l-18 9q-12 6 -12 17q0 6 1 10l63 166q6 12 18 12q5 0 9 -2l44 -21q12 -5 12 -17q0 -7 -1 -10l-88 -155q-8 -12 -18 -12z
" />
    <glyph glyph-name="kcommaaccent" unicode="&#x137;" horiz-adv-x="582" 
d="M89 0v712h90v-450l242 251h117l-174 -181l132 -196q33 -49 33 -110v-26h-89v26q0 39 -17 63l-126 177l-119 -130v-136h-89zM252 -232q-5 0 -10 3l-18 9q-12 6 -12 17q0 6 1 10l63 166q6 12 18 12q5 0 9 -2l44 -21q12 -5 12 -17q0 -7 -1 -10l-88 -155q-8 -12 -18 -12z" />
    <glyph glyph-name="Lacute" unicode="&#x139;" horiz-adv-x="610" 
d="M104 0v712h91v-621h371v-91h-462zM57 772q-14 0 -19 11l-8 17q-3 6 -3 11q0 10 10 17l169 113q4 2 9 2q14 0 20 -10l21 -38q3 -5 3 -11q0 -10 -11 -16l-180 -93q-6 -3 -11 -3z" />
    <glyph glyph-name="lacute" unicode="&#x13a;" horiz-adv-x="466" 
d="M59 0v85h138v542h-112v85h201v-627h115v-85h-342zM121 772q-14 0 -19 11l-8 17q-3 6 -3 11q0 10 10 17l169 113q4 2 9 2q14 0 20 -10l21 -38q3 -5 3 -11q0 -10 -11 -16l-180 -93q-6 -3 -11 -3z" />
    <glyph glyph-name="Lcommaaccent" unicode="&#x13b;" horiz-adv-x="610" 
d="M104 0v712h91v-621h371v-91h-462zM272 -232q-6 0 -10 3l-18 9q-12 6 -12 17q0 6 1 10l63 166q6 12 18 12q5 0 9 -2l44 -21q12 -5 12 -17q0 -7 -1 -10l-88 -155q-8 -12 -18 -12z" />
    <glyph glyph-name="lcommaaccent" unicode="&#x13c;" horiz-adv-x="466" 
d="M59 0v85h138v542h-112v85h201v-627h115v-85h-342zM183 -232q-5 0 -10 3l-18 9q-12 6 -12 17q0 6 1 10l63 166q6 12 18 12q5 0 9 -2l44 -21q12 -5 12 -17q0 -7 -1 -10l-88 -155q-8 -12 -18 -12z" />
    <glyph glyph-name="Lcaron" unicode="&#x13d;" horiz-adv-x="610" 
d="M104 0v712h91v-621h371v-91h-462zM306 513q-6 0 -10 3l-18 9q-12 6 -12 17q0 6 1 10l63 166q6 12 18 12q5 0 9 -2l44 -21q12 -5 12 -17q0 -7 -1 -10l-88 -155q-8 -12 -18 -12z" />
    <glyph glyph-name="lcaron" unicode="&#x13e;" horiz-adv-x="466" 
d="M59 0v85h138v542h-112v85h201v-627h115v-85h-342zM361 513q-5 0 -10 3l-18 9q-12 6 -12 17q0 6 1 10l63 166q6 12 18 12q5 0 9 -2l44 -21q12 -5 12 -17q0 -7 -1 -10l-88 -155q-7 -12 -18 -12z" />
    <glyph glyph-name="Lslash" unicode="&#x141;" horiz-adv-x="610" 
d="M104 0v300l-77 -31v86l77 31v326h91v-289l172 68v-87l-172 -69v-244h371v-91h-462z" />
    <glyph glyph-name="lslash" unicode="&#x142;" horiz-adv-x="466" 
d="M59 0v85h138v237l-112 -45v87l112 46v217h-112v85h201v-267l115 47v-88l-115 -47v-272h115v-85h-342z" />
    <glyph glyph-name="Nacute" unicode="&#x143;" horiz-adv-x="709" 
d="M104 0v712h96l313 -526v526h91v-712h-92l-317 536v-536h-91zM262 772q-14 0 -19 11l-8 17q-3 6 -3 11q0 10 10 17l169 113q4 2 9 2q14 0 20 -10l21 -38q3 -4 3 -11q0 -10 -11 -16l-180 -93q-6 -3 -11 -3z" />
    <glyph glyph-name="nacute" unicode="&#x144;" horiz-adv-x="598" 
d="M89 0v513h88v-47q32 50 104 50h78q67 0 113.5 -46t46.5 -114v-356h-89v325q0 105 -95 105h-63q-92 0 -92 -98v-332h-91zM212 572q-14 0 -19 11l-8 17q-3 6 -3 11q0 10 10 17l169 113q4 2 9 2q14 0 20 -10l21 -38q3 -4 3 -11q0 -10 -11 -16l-180 -93q-6 -3 -11 -3z" />
    <glyph glyph-name="Ncommaaccent" unicode="&#x145;" horiz-adv-x="709" 
d="M104 0v712h96l313 -526v526h91v-712h-92l-317 536v-536h-91zM294 -232q-6 0 -10 3l-18 9q-12 6 -12 17q0 6 1 10l63 166q6 12 18 12q5 0 9 -2l44 -21q12 -5 12 -17q0 -7 -1 -10l-88 -155q-8 -12 -18 -12z" />
    <glyph glyph-name="ncommaaccent" unicode="&#x146;" horiz-adv-x="598" 
d="M89 0v513h88v-47q32 50 104 50h78q67 0 113.5 -46t46.5 -114v-356h-89v325q0 105 -95 105h-63q-92 0 -92 -98v-332h-91zM245 -232q-5 0 -10 3l-18 9q-12 6 -12 17q0 6 1 10l63 166q6 12 18 12q5 0 9 -2l44 -21q12 -5 12 -17q0 -7 -1 -10l-88 -155q-7 -12 -18 -12z" />
    <glyph glyph-name="Ncaron" unicode="&#x147;" horiz-adv-x="709" 
d="M104 0v712h96l313 -526v526h91v-712h-92l-317 536v-536h-91zM320 772q-10 0 -15 6l-100 106q-7 7 -7 15q0 9 6 15l13 13q8 8 15 8q9 0 16 -6l106 -96l106 95q7 7 16 7t15 -7l12 -14q7 -7 7 -15t-6 -14l-101 -107q-4 -6 -14 -6h-69z" />
    <glyph glyph-name="ncaron" unicode="&#x148;" horiz-adv-x="598" 
d="M89 0v513h88v-47q32 50 104 50h78q67 0 113.5 -46t46.5 -114v-356h-89v325q0 105 -95 105h-63q-92 0 -92 -98v-332h-91zM265 572q-10 0 -15 6l-100 106q-7 7 -7 15q0 9 6 15l13 13q8 8 15 8q9 0 16 -6l106 -96l106 95q7 7 16 7t15 -7l12 -14q7 -7 7 -15t-6 -14l-101 -107
q-4 -6 -14 -6h-69z" />
    <glyph glyph-name="Omacron" unicode="&#x14c;" horiz-adv-x="669" 
d="M265 0q-76 0 -128.5 52.5t-52.5 128.5v350q0 76 52.5 128.5t128.5 52.5h138q76 0 128.5 -52.5t52.5 -128.5v-350q0 -76 -52.5 -128.5t-128.5 -52.5h-138zM259 91h149q36 0 60.5 24.5t24.5 60.5v360q0 36 -24.5 60.5t-60.5 24.5h-149q-36 0 -60 -24.5t-24 -60.5v-360
q0 -36 24 -60.5t60 -24.5zM211 875h248v-75h-248v75z" />
    <glyph glyph-name="omacron" unicode="&#x14d;" horiz-adv-x="577" 
d="M233 -3q-70 0 -117 47t-47 117v192q0 70 47 116.5t117 46.5h108q71 0 118.5 -46.5t47.5 -116.5v-192q0 -70 -47.5 -117t-118.5 -47h-108zM231 82h114q33 0 54 21.5t21 55.5v195q0 34 -21 55t-54 21h-114q-30 0 -52.5 -20t-22.5 -56v-195q0 -34 21 -55.5t54 -21.5z
M164 698h248v-75h-248v75z" />
    <glyph glyph-name="Ohungarumlaut" unicode="&#x150;" horiz-adv-x="669" 
d="M265 0q-76 0 -128.5 52.5t-52.5 128.5v350q0 76 52.5 128.5t128.5 52.5h138q76 0 128.5 -52.5t52.5 -128.5v-350q0 -76 -52.5 -128.5t-128.5 -52.5h-138zM259 91h149q36 0 60.5 24.5t24.5 60.5v360q0 36 -24.5 60.5t-60.5 24.5h-149q-36 0 -60 -24.5t-24 -60.5v-360
q0 -36 24 -60.5t60 -24.5zM400 772q-3 0 -7 2l-12 7q-9 6 -9 17q0 4 2 8l71 147q5 9 14 9q6 0 10 -2l36 -21q9 -5 9 -17q0 -1 -3 -7l-94 -135q-5 -8 -17 -8zM269 771q-3 0 -7 2l-12 7q-9 6 -9 17q0 4 2 8l71 147q4 9 14 9q6 0 10 -2l36 -21q9 -5 9 -17q0 -1 -3 -7l-94 -135
q-5 -8 -17 -8z" />
    <glyph glyph-name="ohungarumlaut" unicode="&#x151;" horiz-adv-x="577" 
d="M233 -3q-70 0 -117 47t-47 117v192q0 70 47 116.5t117 46.5h108q71 0 118.5 -46.5t47.5 -116.5v-192q0 -70 -47.5 -117t-118.5 -47h-108zM231 82h114q33 0 54 21.5t21 55.5v195q0 34 -21 55t-54 21h-114q-30 0 -52.5 -20t-22.5 -56v-195q0 -34 21 -55.5t54 -21.5z
M348 572q-5 0 -8 1l-12 6q-10 6 -10 16q0 5 1 8l63 163q4 10 16 10q5 0 7 -1l38 -18q10 -4 10 -16q0 -3 -2 -7l-87 -153q-6 -9 -16 -9zM226 572q-5 0 -8 1l-12 6q-10 6 -10 16q0 5 1 8l63 163q4 10 16 10q5 0 7 -1l38 -18q10 -4 10 -16q0 -3 -2 -7l-87 -153q-6 -9 -16 -9z
" />
    <glyph glyph-name="OE" unicode="&#x152;" horiz-adv-x="992" 
d="M265 -3q-76 0 -128.5 53.5t-52.5 129.5v352q0 76 52.5 129.5t128.5 53.5h119q32 0 60 -12t41 -31v40h433v-91h-348v-212h258v-90h-258v-228h348v-91h-433v46q-8 -21 -39.5 -35t-61.5 -14h-119zM259 88h136q36 0 61 26t25 62v360q0 36 -24.5 62t-60.5 26h-137
q-36 0 -60 -25.5t-24 -61.5v-362q0 -36 24 -61.5t60 -25.5z" />
    <glyph glyph-name="oe" unicode="&#x153;" horiz-adv-x="931" 
d="M233 -3q-70 0 -117 47t-47 117v192q0 70 47 116.5t117 46.5h105q81 0 126 -61q45 61 124 61h114q69 0 113.5 -47.5t44.5 -120.5v-103q0 -9 -7 -15.5t-16 -6.5h-330v-63q0 -33 21.5 -55.5t54.5 -22.5h115q54 0 75 57l9 24l81 -22l-7 -22q-17 -54 -60.5 -88t-102.5 -34
h-102q-80 0 -127 63q-45 -63 -127 -63h-104zM231 82h114q33 0 54 21.5t21 55.5v195q0 34 -21 55t-54 21h-114q-30 0 -52.5 -20t-22.5 -56v-195q0 -34 21 -55.5t54 -21.5zM507 307h267v47q0 32 -16.5 54t-50.5 22h-127q-33 0 -53 -22t-20 -54v-47z" />
    <glyph glyph-name="Racute" unicode="&#x154;" horiz-adv-x="684" 
d="M104 0v712h319q76 0 128.5 -52.5t52.5 -128.5v-40q0 -65 -40 -114t-102 -61l106 -176q36 -59 36 -115v-25h-89v25q0 31 -21 66l-132 220h-167v-311h-91zM195 401h234q36 0 60 24.5t24 59.5v51q0 36 -24 60.5t-60 24.5h-234v-220zM250 772q-14 0 -19 11l-8 17q-3 6 -3 11
q0 10 10 17l169 113q4 2 9 2q14 0 20 -10l21 -38q3 -4 3 -11q0 -10 -11 -16l-180 -93q-6 -3 -11 -3z" />
    <glyph glyph-name="racute" unicode="&#x155;" horiz-adv-x="393" 
d="M89 0v513h87v-54q28 54 110 54h75v-86h-86q-52 0 -74 -24.5t-22 -75.5v-327h-90zM109 572q-14 0 -19 11l-8 17q-3 6 -3 11q0 10 10 17l169 113q4 2 9 2q14 0 20 -10l21 -38q3 -4 3 -11q0 -10 -11 -16l-180 -93q-6 -3 -11 -3z" />
    <glyph glyph-name="Rcommaaccent" unicode="&#x156;" horiz-adv-x="684" 
d="M104 0v712h319q76 0 128.5 -52.5t52.5 -128.5v-40q0 -65 -40 -114t-102 -61l106 -176q36 -59 36 -115v-25h-89v25q0 31 -21 66l-132 220h-167v-311h-91zM195 401h234q36 0 60 24.5t24 59.5v51q0 36 -24 60.5t-60 24.5h-234v-220zM292 -232q-6 0 -10 3l-18 9q-12 6 -12 17
q0 6 1 10l63 166q6 12 18 12q5 0 9 -2l44 -21q12 -5 12 -17q0 -7 -1 -10l-88 -155q-8 -12 -18 -12z" />
    <glyph glyph-name="rcommaaccent" unicode="&#x157;" horiz-adv-x="393" 
d="M89 0v513h87v-54q28 54 110 54h75v-86h-86q-52 0 -74 -24.5t-22 -75.5v-327h-90zM81 -232q-5 0 -10 3l-18 9q-12 6 -12 17q0 6 1 10l63 166q6 12 18 12q5 0 9 -2l44 -21q12 -5 12 -17q0 -7 -1 -10l-88 -155q-7 -12 -18 -12z" />
    <glyph glyph-name="Rcaron" unicode="&#x158;" horiz-adv-x="684" 
d="M104 0v712h319q76 0 128.5 -52.5t52.5 -128.5v-40q0 -65 -40 -114t-102 -61l106 -176q36 -59 36 -115v-25h-89v25q0 31 -21 66l-132 220h-167v-311h-91zM195 401h234q36 0 60 24.5t24 59.5v51q0 36 -24 60.5t-60 24.5h-234v-220zM308 772q-10 0 -15 6l-100 106
q-7 7 -7 15q0 9 6 15l13 13q8 8 15 8q8 0 16 -6l106 -96l106 95q7 7 16 7t15 -7l12 -14q7 -7 7 -15t-6 -14l-101 -107q-4 -6 -14 -6h-69z" />
    <glyph glyph-name="rcaron" unicode="&#x159;" horiz-adv-x="393" 
d="M89 0v513h87v-54q28 54 110 54h75v-86h-86q-52 0 -74 -24.5t-22 -75.5v-327h-90zM191 572q-10 0 -15 6l-100 106q-7 7 -7 15q0 9 6 15l13 13q8 8 15 8q9 0 16 -6l106 -96l106 95q7 7 16 7t15 -7l12 -14q7 -7 7 -15t-6 -14l-101 -107q-4 -6 -14 -6h-69z" />
    <glyph glyph-name="Sacute" unicode="&#x15a;" horiz-adv-x="654" 
d="M256 0q-133 0 -178 150l-6 20l85 23l6 -27q16 -75 87 -75h148q38 0 61.5 23t23.5 67v34q0 24 -15.5 46.5t-41.5 29.5l-221 58q-55 14 -90.5 58.5t-35.5 111.5v20q0 74 46.5 123.5t125.5 49.5h144q142 0 178 -149l5 -21l-84 -23l-7 28q-9 36 -27 55t-58 19h-150
q-41 0 -62 -24t-21 -59v-17q0 -70 68 -88l211 -55q56 -14 90.5 -61.5t34.5 -101.5v-31q0 -78 -50.5 -131t-127.5 -53h-139zM231 772q-14 0 -19 11l-8 17q-3 6 -3 11q0 10 10 17l169 113q4 2 9 2q14 0 20 -10l21 -38q3 -4 3 -11q0 -10 -11 -16l-180 -93q-6 -3 -11 -3z" />
    <glyph glyph-name="sacute" unicode="&#x15b;" horiz-adv-x="568" 
d="M233 -3q-65 0 -105.5 39t-51.5 82l-7 29l83 21l7 -27q16 -59 70 -59h110q32 0 52.5 18t20.5 44v8q0 45 -43 54l-173 33q-56 11 -84.5 44.5t-28.5 76.5v17q0 63 46.5 101t114.5 38h90q63 0 103.5 -37.5t50.5 -79.5l5 -21l-82 -22l-6 19q-18 55 -67 55h-98q-70 0 -70 -57
v-6q0 -37 46 -46l178 -35q50 -10 77.5 -46t27.5 -81v-22q0 -58 -44.5 -99t-115.5 -41h-106zM202 572q-14 0 -19 11l-8 17q-3 6 -3 11q0 10 10 17l169 113q4 2 9 2q14 0 20 -10l21 -38q3 -4 3 -11q0 -10 -11 -16l-180 -93q-6 -3 -11 -3z" />
    <glyph glyph-name="Scedilla" unicode="&#x15e;" horiz-adv-x="654" 
d="M256 0q-133 0 -178 150l-6 20l85 23l6 -27q16 -75 87 -75h148q38 0 61.5 23t23.5 67v34q0 24 -15.5 46.5t-41.5 29.5l-221 58q-55 14 -90.5 58.5t-35.5 111.5v20q0 74 46.5 123.5t125.5 49.5h144q142 0 178 -149l5 -21l-84 -23l-7 28q-9 36 -27 55t-58 19h-150
q-41 0 -62 -24t-21 -59v-17q0 -70 68 -88l211 -55q56 -14 90.5 -61.5t34.5 -101.5v-31q0 -78 -50.5 -131t-127.5 -53h-13l-92 -174q-6 -12 -18 -12q-4 0 -10 3l-24 11q-12 6 -12 17q0 6 2 10l59 145h-31z" />
    <glyph glyph-name="scedilla" unicode="&#x15f;" horiz-adv-x="568" 
d="M233 -3q-65 0 -105.5 39t-51.5 82l-7 29l83 21l7 -27q16 -59 70 -59h110q32 0 52.5 18t20.5 44v8q0 45 -43 54l-173 33q-56 11 -84.5 44.5t-28.5 76.5v17q0 63 46.5 101t114.5 38h90q63 0 103.5 -37.5t50.5 -79.5l5 -21l-82 -22l-6 19q-18 55 -67 55h-98q-70 0 -70 -57
v-6q0 -37 46 -46l178 -35q50 -10 77.5 -46t27.5 -81v-22q0 -58 -43.5 -98.5t-114.5 -41.5l-90 -171q-6 -12 -18 -12q-4 0 -10 3l-24 11q-12 6 -12 17q0 6 2 10l58 142h-14z" />
    <glyph glyph-name="Scaron" unicode="&#x160;" horiz-adv-x="654" 
d="M256 0q-133 0 -178 150l-6 20l85 23l6 -27q16 -75 87 -75h148q38 0 61.5 23t23.5 67v34q0 24 -15.5 46.5t-41.5 29.5l-221 58q-55 14 -90.5 58.5t-35.5 111.5v20q0 74 46.5 123.5t125.5 49.5h144q142 0 178 -149l5 -21l-84 -23l-7 28q-9 36 -27 55t-58 19h-150
q-41 0 -62 -24t-21 -59v-17q0 -70 68 -88l211 -55q56 -14 90.5 -61.5t34.5 -101.5v-31q0 -78 -50.5 -131t-127.5 -53h-139zM283 772q-10 0 -15 6l-100 106q-7 7 -7 15q0 9 6 15l13 13q8 8 15 8q9 0 16 -6l106 -96l106 95q7 7 16 7t15 -7l12 -14q7 -7 7 -15t-6 -14l-101 -107
q-4 -6 -14 -6h-69z" />
    <glyph glyph-name="scaron" unicode="&#x161;" horiz-adv-x="568" 
d="M233 -3q-65 0 -105.5 39t-51.5 82l-7 29l83 21l7 -27q16 -59 70 -59h110q32 0 52.5 18t20.5 44v8q0 45 -43 54l-173 33q-56 11 -84.5 44.5t-28.5 76.5v17q0 63 46.5 101t114.5 38h90q63 0 103.5 -37.5t50.5 -79.5l5 -21l-82 -22l-6 19q-18 55 -67 55h-98q-70 0 -70 -57
v-6q0 -37 46 -46l178 -35q50 -10 77.5 -46t27.5 -81v-22q0 -58 -44.5 -99t-115.5 -41h-106zM255 572q-10 0 -15 6l-100 106q-7 7 -7 15q0 9 6 15l13 13q8 8 15 8q9 0 16 -6l106 -96l106 95q7 7 16 7t15 -7l12 -14q7 -7 7 -15t-6 -14l-101 -107q-4 -6 -14 -6h-69z" />
    <glyph glyph-name="Tcedilla" unicode="&#x162;" horiz-adv-x="588" 
d="M248 0v621h-204v91h499v-91h-204v-621h-91zM239 -232q-5 0 -10 3l-18 9q-12 6 -12 17q0 6 1 10l63 166q6 12 18 12q5 0 9 -2l44 -21q12 -5 12 -17q0 -7 -1 -10l-88 -155q-7 -12 -18 -12z" />
    <glyph glyph-name="tcedilla" unicode="&#x163;" horiz-adv-x="408" 
d="M262 0q-127 0 -127 128v276h-79v85h79v169l90 25v-194h118v-85h-118v-264q0 -55 52 -55h78v-85h-93zM171 -232q-5 0 -10 3l-18 9q-12 6 -12 17q0 6 1 10l63 166q6 12 18 12q5 0 9 -2l44 -21q12 -5 12 -17q0 -7 -1 -10l-88 -155q-7 -12 -18 -12z" />
    <glyph glyph-name="Tcaron" unicode="&#x164;" horiz-adv-x="588" 
d="M248 0v621h-204v91h499v-91h-204v-621h-91zM259 772q-10 0 -15 6l-100 106q-7 7 -7 15q0 9 6 15l13 13q8 8 15 8q9 0 16 -6l106 -96l106 95q7 7 16 7t15 -7l12 -14q7 -7 7 -15t-6 -14l-101 -107q-4 -6 -14 -6h-69z" />
    <glyph glyph-name="tcaron" unicode="&#x165;" horiz-adv-x="408" 
d="M262 0q-127 0 -127 128v276h-79v85h79v169l90 25v-194h118v-85h-118v-264q0 -55 52 -55h78v-85h-93zM295 513q-5 0 -10 3l-18 9q-12 6 -12 17q0 6 1 10l63 166q6 12 18 12q5 0 9 -2l44 -21q12 -5 12 -17q0 -7 -1 -10l-88 -155q-7 -12 -18 -12z" />
    <glyph glyph-name="Umacron" unicode="&#x16a;" horiz-adv-x="675" 
d="M268 0q-76 0 -128.5 52.5t-52.5 128.5v531h90v-536q0 -36 24 -60.5t60 -24.5h150q36 0 60.5 24.5t24.5 60.5v536h91v-531q0 -76 -52.5 -128.5t-128.5 -52.5h-138zM214 875h248v-75h-248v75z" />
    <glyph glyph-name="umacron" unicode="&#x16b;" horiz-adv-x="598" 
d="M239 -3q-67 0 -113.5 46.5t-46.5 113.5v356h89v-327q0 -103 95 -103h63q93 0 93 96v334h90v-513h-90v47q-32 -50 -102 -50h-78zM171 698h248v-75h-248v75z" />
    <glyph glyph-name="Uring" unicode="&#x16e;" horiz-adv-x="675" 
d="M268 0q-76 0 -128.5 52.5t-52.5 128.5v531h90v-536q0 -36 24 -60.5t60 -24.5h150q36 0 60.5 24.5t24.5 60.5v536h91v-531q0 -76 -52.5 -128.5t-128.5 -52.5h-138zM317 772q-27 0 -45.5 19.5t-18.5 47.5v42q0 27 18.5 47t45.5 20h40q27 0 47 -20t20 -47v-42
q0 -28 -20 -47.5t-47 -19.5h-40zM322 822h30q8 0 15 6t7 14v35q0 7 -7 13t-15 6h-30q-7 0 -13 -6t-6 -13v-35q0 -8 6 -14t13 -6z" />
    <glyph glyph-name="uring" unicode="&#x16f;" horiz-adv-x="598" 
d="M239 -3q-67 0 -113.5 46.5t-46.5 113.5v356h89v-327q0 -103 95 -103h63q93 0 93 96v334h90v-513h-90v47q-32 -50 -102 -50h-78zM270 572q-27 0 -45.5 19.5t-18.5 47.5v42q0 27 18.5 47t45.5 20h40q27 0 47 -20t20 -47v-42q0 -28 -20 -47.5t-47 -19.5h-40zM275 622h30
q8 0 15 6t7 14v35q0 7 -7 13t-15 6h-30q-7 0 -13 -6t-6 -13v-35q0 -8 6 -14t13 -6z" />
    <glyph glyph-name="Uhungarumlaut" unicode="&#x170;" horiz-adv-x="675" 
d="M268 0q-76 0 -128.5 52.5t-52.5 128.5v531h90v-536q0 -36 24 -60.5t60 -24.5h150q36 0 60.5 24.5t24.5 60.5v536h91v-531q0 -76 -52.5 -128.5t-128.5 -52.5h-138zM403 772q-3 0 -7 2l-12 7q-9 6 -9 17q0 4 2 8l71 147q4 9 14 9q6 0 10 -2l36 -21q9 -5 9 -17q0 -1 -3 -7
l-94 -135q-5 -8 -17 -8zM272 771q-3 0 -7 2l-12 7q-9 6 -9 17q0 4 2 8l71 147q5 9 14 9q6 0 10 -2l36 -21q9 -5 9 -17q0 -1 -3 -7l-94 -135q-5 -8 -17 -8z" />
    <glyph glyph-name="uhungarumlaut" unicode="&#x171;" horiz-adv-x="598" 
d="M239 -3q-67 0 -113.5 46.5t-46.5 113.5v356h89v-327q0 -103 95 -103h63q93 0 93 96v334h90v-513h-90v47q-32 -50 -102 -50h-78zM355 572q-5 0 -8 1l-12 6q-10 6 -10 16q0 5 1 8l63 163q4 10 16 10q5 0 7 -1l38 -18q10 -4 10 -16q0 -3 -2 -7l-87 -153q-6 -9 -16 -9z
M233 572q-5 0 -8 1l-12 6q-10 6 -10 16q0 5 1 8l63 163q4 10 16 10q5 0 7 -1l38 -18q10 -4 10 -16q0 -3 -2 -7l-87 -153q-6 -9 -16 -9z" />
    <glyph glyph-name="Uogonek" unicode="&#x172;" horiz-adv-x="675" 
d="M268 0q-76 0 -128.5 52.5t-52.5 128.5v531h90v-536q0 -36 24 -60.5t60 -24.5h150q36 0 60.5 24.5t24.5 60.5v536h91v-531q0 -70 -45 -121t-113 -59q-33 -41 -43.5 -61t-10.5 -41q0 -13 9 -22t24 -9h6q20 0 42 15l29 -49q-23 -20 -43 -26t-51 -7h-3q-47 0 -73 23.5
t-26 63.5q0 59 74 112h-95z" />
    <glyph glyph-name="uogonek" unicode="&#x173;" horiz-adv-x="598" 
d="M538 -166q-23 -20 -43 -26t-51 -7h-3q-47 0 -73 23.5t-26 63.5q0 59 77 114v45q-32 -50 -102 -50h-78q-67 0 -113.5 46.5t-46.5 113.5v356h89v-327q0 -103 95 -103h63q93 0 93 96v334h90v-513h-28q-32 -40 -42.5 -60t-10.5 -41q0 -13 9 -22t24 -9h6q19 0 42 15z" />
    <glyph glyph-name="Ydieresis" unicode="&#x178;" horiz-adv-x="598" 
d="M254 0v277l-190 320q-15 24 -15 47v68h89v-49q0 -14 6 -25l155 -266l155 266q6 11 6 25v49h88v-68q0 -24 -14 -47l-189 -320v-277h-91zM363 798q-7 0 -13.5 6t-6.5 14v50q0 7 6 13t14 6h53q8 0 13.5 -5.5t5.5 -13.5v-50q0 -8 -6 -14t-14 -6h-52zM169 798q-7 0 -13 6
t-6 14v50q0 8 6 13.5t13 5.5h53q8 0 13.5 -5.5t5.5 -13.5v-50q0 -8 -6 -14t-14 -6h-52z" />
    <glyph glyph-name="Zacute" unicode="&#x179;" horiz-adv-x="669" 
d="M84 0v85l387 536h-387v91h500v-82l-388 -539h388v-91h-500zM242 772q-14 0 -19 11l-8 17q-3 6 -3 11q0 10 10 17l169 113q4 2 9 2q14 0 20 -10l21 -38q3 -4 3 -11q0 -10 -11 -16l-180 -93q-6 -3 -11 -3z" />
    <glyph glyph-name="zacute" unicode="&#x17a;" horiz-adv-x="537" 
d="M64 0v75l281 352h-280v86h396v-75l-281 -353h292v-85h-408zM176 572q-14 0 -19 11l-8 17q-3 6 -3 11q0 10 10 17l169 113q4 2 9 2q14 0 20 -10l21 -38q3 -4 3 -11q0 -10 -11 -16l-180 -93q-6 -3 -11 -3z" />
    <glyph glyph-name="Zdotaccent" unicode="&#x17b;" horiz-adv-x="669" 
d="M84 0v85l387 536h-387v91h500v-82l-388 -539h388v-91h-500zM301 798q-8 0 -13.5 6t-5.5 14v65q0 7 6 13t13 6h66q8 0 13.5 -6t5.5 -13v-65q0 -8 -5.5 -14t-13.5 -6h-66z" />
    <glyph glyph-name="zdotaccent" unicode="&#x17c;" horiz-adv-x="537" 
d="M64 0v75l281 352h-280v86h396v-75l-281 -353h292v-85h-408zM230 625q-8 0 -13.5 6t-5.5 14v65q0 7 6 13t13 6h66q8 0 13.5 -6t5.5 -13v-65q0 -8 -5.5 -14t-13.5 -6h-66z" />
    <glyph glyph-name="Zcaron" unicode="&#x17d;" horiz-adv-x="669" 
d="M84 0v85l387 536h-387v91h500v-82l-388 -539h388v-91h-500zM294 772q-10 0 -15 6l-100 106q-7 7 -7 15q0 9 6 15l13 13q8 8 15 8q8 0 16 -6l106 -96l106 95q7 7 16 7t15 -7l12 -14q7 -7 7 -15t-6 -14l-101 -107q-5 -6 -14 -6h-69z" />
    <glyph glyph-name="zcaron" unicode="&#x17e;" horiz-adv-x="537" 
d="M64 0v75l281 352h-280v86h396v-75l-281 -353h292v-85h-408zM229 572q-10 0 -15 6l-100 106q-7 7 -7 15q0 9 6 15l13 13q8 8 15 8q9 0 16 -6l106 -96l106 95q7 7 16 7t15 -7l12 -14q7 -7 7 -15t-6 -14l-101 -107q-4 -6 -14 -6h-69z" />
    <glyph glyph-name="florin" unicode="&#x192;" 
d="M163 -201v85h64q28 0 42.5 18t14.5 45v446h-73v85h73v95q0 59 39.5 99t97.5 40h87v-85h-78q-28 0 -42.5 -18t-14.5 -45v-86h90v-85h-90v-456q0 -58 -39.5 -98t-97.5 -40h-73z" />
    <glyph glyph-name="circumflex" unicode="&#x2c6;" horiz-adv-x="475" 
d="M359 571q-9 0 -16 7l-106 95l-106 -94q-8 -7 -16 -7q-9 0 -15 7l-13 14q-6 7 -6 15t6 14l98 107q5 6 14 6h74q10 0 15 -6l99 -107q6 -6 6 -14q0 -9 -6 -15l-13 -14q-8 -8 -15 -8z" />
    <glyph glyph-name="caron" unicode="&#x2c7;" horiz-adv-x="475" 
d="M203 572q-10 0 -15 6l-100 106q-7 7 -7 15q0 9 6 15l13 13q8 8 15 8q9 0 16 -6l106 -96l106 95q7 7 16 7t15 -7l12 -14q7 -7 7 -15t-6 -14l-101 -107q-4 -6 -14 -6h-69z" />
    <glyph glyph-name="breve" unicode="&#x2d8;" horiz-adv-x="475" 
d="M214 580q-40 0 -66.5 28.5t-26.5 69.5v57h70v-68q0 -10 7.5 -18t18.5 -8h38q12 0 20 8t8 18v68h71v-57q0 -41 -28 -69.5t-68 -28.5h-44z" />
    <glyph glyph-name="dotaccent" unicode="&#x2d9;" horiz-adv-x="475" 
d="M204 625q-8 0 -13.5 6t-5.5 14v65q0 7 6 13t13 6h66q8 0 13.5 -6t5.5 -13v-65q0 -8 -5.5 -14t-13.5 -6h-66z" />
    <glyph glyph-name="ring" unicode="&#x2da;" horiz-adv-x="475" 
d="M215 572q-27 0 -45.5 19.5t-18.5 47.5v42q0 27 18.5 47t45.5 20h40q27 0 47 -20t20 -47v-42q0 -28 -20 -47.5t-47 -19.5h-40zM220 622h30q8 0 15 6t7 14v35q0 7 -7 13t-15 6h-30q-7 0 -13 -6t-6 -13v-35q0 -8 6 -14t13 -6z" />
    <glyph glyph-name="ogonek" unicode="&#x2db;" horiz-adv-x="475" 
d="M251 -166q-23 -20 -43 -26t-51 -7h-3q-47 0 -73 23.5t-26 63.5q0 59 77 114h64q-33 -42 -44 -62t-11 -41q0 -13 9 -22t24 -9h6q20 0 42 15z" />
    <glyph glyph-name="tilde" unicode="&#x2dc;" horiz-adv-x="475" 
d="M96 588l-40 16l8 22q29 79 103 79q23 0 80 -19l70 -24q9 -3 17 -3q23 0 36 26l6 12l43 -18l-8 -18q-32 -72 -96 -72q-35 0 -104 23l-52 18q-9 3 -16 3q-25 0 -38 -26z" />
    <glyph glyph-name="hungarumlaut" unicode="&#x2dd;" horiz-adv-x="475" 
d="M261 572q-5 0 -8 1l-12 6q-10 6 -10 16q0 5 1 8l63 163q4 10 16 10q5 0 7 -1l38 -18q10 -4 10 -16q0 -3 -2 -7l-87 -153q-6 -9 -16 -9zM139 572q-5 0 -8 1l-12 6q-10 6 -10 16q0 5 1 8l63 163q4 10 16 10q5 0 7 -1l38 -18q10 -4 10 -16q0 -3 -2 -7l-87 -153q-6 -9 -16 -9
z" />
    <glyph glyph-name="pi" unicode="&#x3c0;" horiz-adv-x="429" 
d="M174 281q-14 0 -24.5 9.5t-10.5 22.5v87q0 13 10.5 22.5t24.5 9.5h82q14 0 23.5 -9.5t9.5 -22.5v-87q0 -13 -9.5 -22.5t-23.5 -9.5h-82z" />
    <glyph glyph-name="endash" unicode="&#x2013;" horiz-adv-x="648" 
d="M81 313v80h486v-80h-486z" />
    <glyph glyph-name="emdash" unicode="&#x2014;" horiz-adv-x="724" 
d="M43 317v76h639v-76h-639z" />
    <glyph glyph-name="quoteleft" unicode="&#x2018;" horiz-adv-x="413" 
d="M179 425q-5 0 -11 2l-61 28q-16 8 -16 25q0 6 3 12l138 238q9 16 24 16q3 0 13 -4l20 -9q15 -7 15 -24q0 -5 -3 -13l-97 -256q-6 -15 -25 -15z" />
    <glyph glyph-name="quoteright" unicode="&#x2019;" horiz-adv-x="413" 
d="M140 424q-8 0 -13 3l-19 10q-16 8 -16 24l3 12l97 257q5 15 26 15q7 0 11 -2l61 -29q14 -6 14 -24q0 -8 -3 -12l-136 -238q-9 -16 -25 -16z" />
    <glyph glyph-name="quotesinglbase" unicode="&#x201a;" horiz-adv-x="413" 
d="M139 -94q-7 0 -12 3l-22 12q-13 7 -13 20q0 7 3 14l97 257q6 16 24 16q6 0 13 -3l61 -28q16 -7 16 -22q0 -7 -4 -15l-140 -237q-10 -17 -23 -17z" />
    <glyph glyph-name="quotedblleft" unicode="&#x201c;" horiz-adv-x="630" 
d="M179 425q-5 0 -11 2l-61 28q-16 8 -16 25q0 6 3 12l138 238q9 16 24 16q3 0 13 -4l20 -9q15 -7 15 -24q0 -5 -3 -13l-97 -256q-6 -15 -25 -15zM376 425q-5 0 -11 2l-61 28q-15 7 -15 25q0 6 3 12l137 238q9 16 24 16q3 0 13 -4l19 -9q16 -7 16 -25q0 -7 -2 -12l-98 -256
q-6 -15 -25 -15z" />
    <glyph glyph-name="quotedblright" unicode="&#x201d;" horiz-adv-x="630" 
d="M344 424q-8 0 -14 3l-19 10q-15 7 -15 23q0 9 2 13l98 257q5 15 24 15q5 0 11 -2l61 -29q16 -8 16 -25q0 -7 -3 -11l-137 -238q-9 -16 -24 -16zM146 424q-7 0 -13 3l-19 10q-16 8 -16 24q0 6 3 12l97 257q5 15 26 15q7 0 11 -2l60 -29q15 -8 15 -24q0 -8 -3 -12
l-137 -238q-9 -16 -24 -16z" />
    <glyph glyph-name="quotedblbase" unicode="&#x201e;" horiz-adv-x="630" 
d="M336 -94q-7 0 -12 3l-22 12q-13 7 -13 20q0 7 3 14l98 257q6 16 23 16q7 0 13 -3l61 -28q16 -8 16 -22q0 -10 -4 -15l-139 -237q-9 -17 -24 -17zM139 -94q-7 0 -12 3l-22 12q-13 7 -13 20q0 7 3 14l97 257q6 16 24 16q6 0 13 -3l61 -28q16 -7 16 -22q0 -7 -4 -15
l-140 -237q-10 -17 -23 -17z" />
    <glyph glyph-name="dagger" unicode="&#x2020;" 
d="M291 -88v516h-180v87h180v197h89v-197h180v-87h-180v-516h-89z" />
    <glyph glyph-name="daggerdbl" unicode="&#x2021;" 
d="M291 -88v198h-180v87h180v231h-180v87h180v197h89v-197h180v-87h-180v-231h180v-87h-180v-198h-89z" />
    <glyph glyph-name="bullet" unicode="&#x2022;" horiz-adv-x="429" 
d="M174 281q-14 0 -24.5 9.5t-10.5 22.5v87q0 13 10.5 22.5t24.5 9.5h82q14 0 23.5 -9.5t9.5 -22.5v-87q0 -13 -9.5 -22.5t-23.5 -9.5h-82z" />
    <glyph glyph-name="ellipsis" unicode="&#x2026;" horiz-adv-x="751" 
d="M116 0q-12 0 -21 8.5t-9 19.5v74q0 11 9 19.5t21 8.5h74q11 0 20 -8.5t9 -19.5v-74q0 -11 -9 -19.5t-20 -8.5h-74zM562 0q-12 0 -21 8.5t-9 19.5v74q0 11 9 19.5t21 8.5h73q12 0 21 -8.5t9 -19.5v-74q0 -11 -9 -19.5t-21 -8.5h-73zM339 0q-12 0 -20.5 8.5t-8.5 19.5v74
q0 11 8.5 19.5t20.5 8.5h73q12 0 21 -8.5t9 -19.5v-74q0 -11 -9 -19.5t-21 -8.5h-73z" />
    <glyph glyph-name="perthousand" unicode="&#x2030;" horiz-adv-x="923" 
d="M202 -49l-75 33l357 763l75 -34zM490 113q-12 0 -20.5 8.5t-8.5 20.5v83q0 12 8.5 20.5t20.5 8.5h86q12 0 20.5 -8.5t8.5 -20.5v-83q0 -12 -8.5 -20.5t-20.5 -8.5h-86zM681 113q-12 0 -20.5 8.5t-8.5 20.5v83q0 12 8.5 20.5t20.5 8.5h86q12 0 20.5 -8.5t8.5 -20.5v-83
q0 -12 -8.5 -20.5t-20.5 -8.5h-86zM116 470q-12 0 -20.5 9t-8.5 21v82q0 12 8.5 20.5t20.5 8.5h86q12 0 20.5 -8.5t8.5 -20.5v-82q0 -12 -8.5 -21t-20.5 -9h-86z" />
    <glyph glyph-name="guilsinglleft" unicode="&#x2039;" horiz-adv-x="387" 
d="M275 116q-10 0 -19 8l-191 172q-8 8 -8 19q0 13 8 19l191 173q8 8 18 8t18 -8l12 -10q8 -7 8 -20q0 -10 -8 -19l-123 -142l123 -144q8 -10 8 -19q0 -10 -8 -18l-11 -11q-8 -8 -18 -8z" />
    <glyph glyph-name="guilsinglright" unicode="&#x203a;" horiz-adv-x="387" 
d="M112 116q-10 0 -18 8l-10 10q-9 9 -9 19q0 9 8 19l122 144l-121 142q-9 10 -9 19q0 11 8 19l12 11q8 8 18 8t18 -8l191 -173q7 -7 7 -19t-7 -19l-191 -172q-8 -8 -19 -8z" />
    <glyph glyph-name="fraction" unicode="&#x2044;" horiz-adv-x="550" 
d="M152 -50l-84 38l360 772l85 -39z" />
    <glyph glyph-name="Euro" unicode="&#x20ac;" 
d="M293 0q-77 0 -129 52t-52 129v41l-84 -16v81l84 15v80l-84 -15v81l84 15v68q0 77 52 129t129 52h139q79 0 124.5 -47t58.5 -123l-84 -23l-7 28q-18 74 -87 74h-151q-36 0 -60 -24.5t-24 -60.5v-57l181 33v-81l-181 -32v-81l181 33v-80l-181 -33v-62q0 -36 24 -60.5
t60 -24.5h150q71 0 87 75l6 27l85 -23q-13 -76 -58.5 -123t-124.5 -47h-138z" />
    <glyph glyph-name="trademark" unicode="&#x2122;" horiz-adv-x="646" 
d="M333 427v285h50l72 -161l73 161h50v-285h-54v146l-53 -111h-30l-54 111v-146h-54zM132 427v224h-83v61h226v-61h-85v-224h-58z" />
    <glyph glyph-name="Omega" unicode="&#x2126;" horiz-adv-x="429" 
d="M174 281q-14 0 -24.5 9.5t-10.5 22.5v87q0 13 10.5 22.5t24.5 9.5h82q14 0 23.5 -9.5t9.5 -22.5v-87q0 -13 -9.5 -22.5t-23.5 -9.5h-82z" />
    <glyph glyph-name="partialdiff" unicode="&#x2202;" 
d="M281 -3q-70 0 -117.5 47t-47.5 117v185q0 67 46.5 113.5t113.5 46.5h86q75 0 103 -50v81q0 91 -66 138l-22 16l56 69q121 -84 121 -233v-366q0 -70 -48 -117t-118 -47h-107zM289 82h102q33 0 54 21.5t21 55.5v163q0 50 -22 74t-78 24h-74q-40 0 -63.5 -27t-23.5 -76v-151
q0 -39 22 -61.5t62 -22.5z" />
    <glyph glyph-name="Delta" unicode="&#x2206;" horiz-adv-x="429" 
d="M174 281q-14 0 -24.5 9.5t-10.5 22.5v87q0 13 10.5 22.5t24.5 9.5h82q14 0 23.5 -9.5t9.5 -22.5v-87q0 -13 -9.5 -22.5t-23.5 -9.5h-82z" />
    <glyph glyph-name="product" unicode="&#x220f;" horiz-adv-x="429" 
d="M174 281q-14 0 -24.5 9.5t-10.5 22.5v87q0 13 10.5 22.5t24.5 9.5h82q14 0 23.5 -9.5t9.5 -22.5v-87q0 -13 -9.5 -22.5t-23.5 -9.5h-82z" />
    <glyph glyph-name="summation" unicode="&#x2211;" horiz-adv-x="429" 
d="M174 281q-14 0 -24.5 9.5t-10.5 22.5v87q0 13 10.5 22.5t24.5 9.5h82q14 0 23.5 -9.5t9.5 -22.5v-87q0 -13 -9.5 -22.5t-23.5 -9.5h-82z" />
    <glyph glyph-name="minus" unicode="&#x2212;" horiz-adv-x="571" 
d="M117 317v76h337v-76h-337z" />
    <glyph glyph-name="radical" unicode="&#x221a;" horiz-adv-x="429" 
d="M174 281q-14 0 -24.5 9.5t-10.5 22.5v87q0 13 10.5 22.5t24.5 9.5h82q14 0 23.5 -9.5t9.5 -22.5v-87q0 -13 -9.5 -22.5t-23.5 -9.5h-82z" />
    <glyph glyph-name="infinity" unicode="&#x221e;" horiz-adv-x="429" 
d="M174 281q-14 0 -24.5 9.5t-10.5 22.5v87q0 13 10.5 22.5t24.5 9.5h82q14 0 23.5 -9.5t9.5 -22.5v-87q0 -13 -9.5 -22.5t-23.5 -9.5h-82z" />
    <glyph glyph-name="integral" unicode="&#x222b;" 
d="M177 -204v85h57q28 0 42.5 18.5t14.5 44.5v629q0 59 39.5 99t97.5 40h66v-85h-57q-28 0 -42.5 -18t-14.5 -45v-629q0 -59 -39.5 -99t-97.5 -40h-66z" />
    <glyph glyph-name="approxequal" unicode="&#x2248;" horiz-adv-x="429" 
d="M174 281q-14 0 -24.5 9.5t-10.5 22.5v87q0 13 10.5 22.5t24.5 9.5h82q14 0 23.5 -9.5t9.5 -22.5v-87q0 -13 -9.5 -22.5t-23.5 -9.5h-82z" />
    <glyph glyph-name="notequal" unicode="&#x2260;" horiz-adv-x="571" 
d="M215 101l-65 27l46 106h-110v76h143l40 90h-183v76h215l55 126l65 -26l-43 -100h106v-75h-139l-40 -91h179v-76h-211z" />
    <glyph glyph-name="lessequal" unicode="&#x2264;" horiz-adv-x="393" 
d="M270 160q-10 0 -18 8l-135 128q-8 8 -8 18v83q0 11 8 19l135 128q8 8 18 8q9 0 19 -8l17 -16q9 -9 9 -19q0 -12 -8 -20l-122 -133l122 -133q8 -9 8 -20q0 -10 -9 -19l-17 -16q-8 -8 -19 -8z" />
    <glyph glyph-name="greaterequal" unicode="&#x2265;" horiz-adv-x="393" 
d="M143 160q-9 0 -19 8l-17 16q-10 10 -10 19t9 20l123 133l-123 132q-8 9 -8 21q0 10 9 19l17 16q10 8 19 8q10 0 18 -8l135 -128q7 -7 7 -19v-83q0 -11 -7 -18l-135 -128q-8 -8 -18 -8z" />
    <glyph glyph-name="lozenge" unicode="&#x25ca;" horiz-adv-x="429" 
d="M174 281q-14 0 -24.5 9.5t-10.5 22.5v87q0 13 10.5 22.5t24.5 9.5h82q14 0 23.5 -9.5t9.5 -22.5v-87q0 -13 -9.5 -22.5t-23.5 -9.5h-82z" />
    <glyph glyph-name="fi" unicode="&#xfb01;" horiz-adv-x="823" 
d="M119 0v404h-60v85h60v84q0 59 39.5 99t97.5 40h92v-85h-83q-28 0 -42.5 -18t-14.5 -45v-75h96v-85h-96v-404h-89zM428 0v85h137v319h-112v86h201v-405h117v-85h-343zM577 635q-7 0 -11.5 4.5t-4.5 10.5v64q0 6 4.5 10.5t11.5 4.5h66q6 0 11 -4.5t5 -10.5v-64
q0 -6 -5 -10.5t-11 -4.5h-66z" />
    <glyph glyph-name="fl" unicode="&#xfb02;" horiz-adv-x="834" 
d="M428 0v85h138v542h-113v85h202v-627h115v-85h-342zM119 0v403h-60v86h60v84q0 59 39.5 99t97.5 40h92v-85h-83q-28 0 -42.5 -18t-14.5 -45v-75h96v-86h-96v-403h-89z" />
    </font>
</defs>
</svg>
